  0
SECTION
  2
HEADER
  9
$ACADVER
  1
AC1015
  9
$ACADMAINTVER
 70
     6
  9
$DWGCODEPAGE
  3
ANSI_1252
  9
$INSBASE
 10
0.0
 20
0.0
 30
0.0
  9
$EXTMIN
 10
0.0
 20
0.0
 30
0.0
  9
$EXTMAX
 10
400.0
 20
300.0
 30
0.0
  9
$LIMMIN
 10
0.0
 20
0.0
  9
$LIMMAX
 10
400.0
 20
300.0
  9
$ORTHOMODE
 70
     0
  9
$REGENMODE
 70
     1
  9
$FILLMODE
 70
     1
  9
$QTEXTMODE
 70
     0
  9
$MIRRTEXT
 70
     1
  9
$LTSCALE
 40
1.0
  9
$ATTMODE
 70
     1
  9
$TEXTSIZE
 40
3.5
  9
$TRACEWID
 40
1.0
  9
$TEXTSTYLE
  7
Standard
  9
$CLAYER
  8
0
  9
$CELTYPE
  6
ByLayer
  9
$CECOLOR
 62
   256
  9
$CELTSCALE
 40
1.0
  9
$DISPSILH
 70
     0
  9
$DIMSCALE
 40
1.0
  9
$DIMASZ
 40
3.302
  9
$DIMEXO
 40
1.0
  9
$DIMDLI
 40
3.75
  9
$DIMRND
 40
0.0
  9
$DIMDLE
 40
0.0
  9
$DIMEXE
 40
1.0
  9
$DIMTP
 40
0.0
  9
$DIMTM
 40
0.0
  9
$DIMTXT
 40
3.5
  9
$DIMCEN
 40
2.5
  9
$DIMTSZ
 40
0.0
  9
$DIMTOL
 70
     0
  9
$DIMLIM
 70
     0
  9
$DIMTIH
 70
     1
  9
$DIMTOH
 70
     1
  9
$DIMSE1
 70
     0
  9
$DIMSE2
 70
     0
  9
$DIMTAD
 70
     1
  9
$DIMZIN
 70
     1
  9
$DIMBLK
  1

  9
$DIMASO
 70
     1
  9
$DIMSHO
 70
     1
  9
$DIMPOST
  1

  9
$DIMAPOST
  1

  9
$DIMALT
 70
     0
  9
$DIMALTD
 70
     3
  9
$DIMALTF
 40
0.0393700787
  9
$DIMLFAC
 40
1.0
  9
$DIMTOFL
 70
     1
  9
$DIMTVP
 40
0.0
  9
$DIMTIX
 70
     0
  9
$DIMSOXD
 70
     0
  9
$DIMSAH
 70
     0
  9
$DIMBLK1
  1

  9
$DIMBLK2
  1

  9
$DIMSTYLE
  2
ISO-25
  9
$DIMCLRD
 70
     0
  9
$DIMCLRE
 70
     0
  9
$DIMCLRT
 70
     0
  9
$DIMTFAC
 40
1.0
  9
$DIMGAP
 40
1.524
  9
$DIMJUST
 70
     0
  9
$DIMSD1
 70
     0
  9
$DIMSD2
 70
     0
  9
$DIMTOLJ
 70
     0
  9
$DIMTZIN
 70
     1
  9
$DIMALTZ
 70
     0
  9
$DIMALTTZ
 70
     0
  9
$DIMUPT
 70
     0
  9
$DIMDEC
 70
     2
  9
$DIMTDEC
 70
     2
  9
$DIMALTU
 70
     2
  9
$DIMALTTD
 70
     3
  9
$DIMTXSTY
  7
Standard
  9
$DIMAUNIT
 70
     0
  9
$DIMADEC
 70
     2
  9
$DIMALTRND
 40
0.0
  9
$DIMAZIN
 70
     0
  9
$DIMDSEP
 70
    44
  9
$DIMATFIT
 70
     3
  9
$DIMFRAC
 70
     0
  9
$DIMLDRBLK
  1

  9
$DIMLUNIT
 70
     2
  9
$DIMLWD
 70
    -2
  9
$DIMLWE
 70
    -2
  9
$DIMTMOVE
 70
     0
  9
$LUNITS
 70
     2
  9
$LUPREC
 70
     2
  9
$SKETCHINC
 40
1.0
  9
$FILLETRAD
 40
0.0
  9
$AUNITS
 70
     0
  9
$AUPREC
 70
     2
  9
$MENU
  1
.
  9
$ELEVATION
 40
0.0
  9
$PELEVATION
 40
0.0
  9
$THICKNESS
 40
0.0
  9
$LIMCHECK
 70
     0
  9
$CHAMFERA
 40
0.0
  9
$CHAMFERB
 40
0.0
  9
$CHAMFERC
 40
0.0
  9
$CHAMFERD
 40
0.0
  9
$SKPOLY
 70
     0
  9
$TDCREATE
 40
2460788.928096818
  9
$TDUCREATE
 40
2460788.844763484
  9
$TDUPDATE
 40
2460788.928097083
  9
$TDUUPDATE
 40
2460788.84476375
  9
$TDINDWG
 40
0.0000000116
  9
$TDUSRTIMER
 40
0.0000000116
  9
$USRTIMER
 70
     1
  9
$ANGBASE
 50
0.0
  9
$ANGDIR
 70
     0
  9
$PDMODE
 70
     0
  9
$PDSIZE
 40
-1.0
  9
$PLINEWID
 40
0.0
  9
$SPLFRAME
 70
     0
  9
$SPLINETYPE
 70
     6
  9
$SPLINESEGS
 70
     8
  9
$HANDSEED
  5
19F
  9
$SURFTAB1
 70
     6
  9
$SURFTAB2
 70
     6
  9
$SURFTYPE
 70
     6
  9
$SURFU
 70
     6
  9
$SURFV
 70
     6
  9
$UCSBASE
  2

  9
$UCSNAME
  2

  9
$UCSORG
 10
0.0
 20
0.0
 30
0.0
  9
$UCSXDIR
 10
1.0
 20
0.0
 30
0.0
  9
$UCSYDIR
 10
0.0
 20
1.0
 30
0.0
  9
$UCSORTHOREF
  2

  9
$UCSORTHOVIEW
 70
     0
  9
$UCSORGTOP
 10
0.0
 20
0.0
 30
0.0
  9
$UCSORGBOTTOM
 10
0.0
 20
0.0
 30
0.0
  9
$UCSORGLEFT
 10
0.0
 20
0.0
 30
0.0
  9
$UCSORGRIGHT
 10
0.0
 20
0.0
 30
0.0
  9
$UCSORGFRONT
 10
0.0
 20
0.0
 30
0.0
  9
$UCSORGBACK
 10
0.0
 20
0.0
 30
0.0
  9
$PUCSBASE
  2

  9
$PUCSNAME
  2

  9
$PUCSORG
 10
0.0
 20
0.0
 30
0.0
  9
$PUCSXDIR
 10
1.0
 20
0.0
 30
0.0
  9
$PUCSYDIR
 10
0.0
 20
1.0
 30
0.0
  9
$PUCSORTHOREF
  2

  9
$PUCSORTHOVIEW
 70
     0
  9
$PUCSORGTOP
 10
0.0
 20
0.0
 30
0.0
  9
$PUCSORGBOTTOM
 10
0.0
 20
0.0
 30
0.0
  9
$PUCSORGLEFT
 10
0.0
 20
0.0
 30
0.0
  9
$PUCSORGRIGHT
 10
0.0
 20
0.0
 30
0.0
  9
$PUCSORGFRONT
 10
0.0
 20
0.0
 30
0.0
  9
$PUCSORGBACK
 10
0.0
 20
0.0
 30
0.0
  9
$USERI1
 70
     0
  9
$USERI2
 70
     0
  9
$USERI3
 70
     0
  9
$USERI4
 70
     0
  9
$USERI5
 70
     0
  9
$USERR1
 40
0.0
  9
$USERR2
 40
0.0
  9
$USERR3
 40
0.0
  9
$USERR4
 40
0.0
  9
$USERR5
 40
0.0
  9
$WORLDVIEW
 70
     1
  9
$SHADEDGE
 70
     3
  9
$SHADEDIF
 70
    70
  9
$TILEMODE
 70
     1
  9
$MAXACTVP
 70
    64
  9
$PINSBASE
 10
0.0
 20
0.0
 30
0.0
  9
$PLIMCHECK
 70
     0
  9
$PEXTMIN
 10
1.0000000000E+20
 20
1.0000000000E+20
 30
1.0000000000E+20
  9
$PEXTMAX
 10
-1.0000000000E+20
 20
-1.0000000000E+20
 30
-1.0000000000E+20
  9
$PLIMMIN
 10
0.0
 20
0.0
  9
$PLIMMAX
 10
420.0
 20
297.0
  9
$UNITMODE
 70
     0
  9
$VISRETAIN
 70
     1
  9
$PLINEGEN
 70
     0
  9
$PSLTSCALE
 70
     1
  9
$TREEDEPTH
 70
  3020
  9
$CMLSTYLE
  2
Standard
  9
$CMLJUST
 70
     0
  9
$CMLSCALE
 40
20.0
  9
$PROXYGRAPHICS
 70
     1
  9
$MEASUREMENT
 70
     1
  9
$CELWEIGHT
370
    -1
  9
$ENDCAPS
280
     0
  9
$JOINSTYLE
280
     0
  9
$LWDISPLAY
290
     1
  9
$INSUNITS
 70
     4
  9
$HYPERLINKBASE
  1

  9
$STYLESHEET
  1

  9
$XEDIT
290
     1
  9
$CEPSNTYPE
380
     0
  9
$PSTYLEMODE
290
     1
  9
$FINGERPRINTGUID
  2
{d35340ae-ec4f-406a-b1ea-25bfbec63051}
  9
$VERSIONGUID
  2
{FAEB1C32-E019-11D5-929B-00C0DF256EC4}
  9
$EXTNAMES
290
     1
  9
$PSVPSCALE
 40
0.0
  9
$OLESTARTUP
290
     0
  0
ENDSEC
  0
SECTION
  2
CLASSES
  0
CLASS
  1
ACDBDICTIONARYWDFLT
  2
AcDbDictionaryWithDefault
  3
ObjectDBX Classes
 90
        0
280
     0
281
     0
  0
CLASS
  1
VISUALSTYLE
  2
AcDbVisualStyle
  3
ObjectDBX Classes
 90
     4095
280
     0
281
     0
  0
CLASS
  1
MATERIAL
  2
AcDbMaterial
  3
ObjectDBX Classes
 90
     1153
280
     0
281
     0
  0
CLASS
  1
SCALE
  2
AcDbScale
  3
ObjectDBX Classes
 90
     1153
280
     0
281
     0
  0
CLASS
  1
TABLESTYLE
  2
AcDbTableStyle
  3
ObjectDBX Classes
 90
     4095
280
     0
281
     0
  0
CLASS
  1
MLEADERSTYLE
  2
AcDbMLeaderStyle
  3
ACDB_MLEADERSTYLE_CLASS
 90
     4095
280
     0
281
     0
  0
CLASS
  1
SUN
  2
AcDbSun
  3
SCENEOE
 90
     1153
280
     0
281
     0
  0
CLASS
  1
ACDBPLACEHOLDER
  2
AcDbPlaceHolder
  3
ObjectDBX Classes
 90
        0
280
     0
281
     0
  0
CLASS
  1
LAYOUT
  2
AcDbLayout
  3
ObjectDBX Classes
 90
        0
280
     0
281
     0
  0
ENDSEC
  0
SECTION
  2
TABLES
  0
TABLE
  2
VPORT
  5
8
330
0
100
AcDbSymbolTable
 70
     1
  0
VPORT
  5
29
330
8
100
AcDbSymbolTableRecord
100
AcDbViewportTableRecord
  2
*Active
 70
     0
 10
0.0
 20
0.0
 11
1.0
 21
1.0
 12
200.0
 22
150.0
 13
0.0
 23
0.0
 14
10.0
 24
10.0
 15
10.0
 25
10.0
 16
0.0
 26
0.0
 36
1.0
 17
0.0
 27
0.0
 37
0.0
 40
300.0
 41
1.3333333333
 42
50.0
 43
0.0
 44
0.0
 50
0.0
 51
0.0
 71
     0
 72
  2000
 73
     1
 74
     3
 75
     0
 76
     0
 77
     0
 78
     0
281
     0
 65
     1
110
0.0
120
0.0
130
0.0
111
1.0
121
0.0
131
0.0
112
0.0
122
1.0
132
0.0
 79
     0
146
0.0
  0
ENDTAB
  0
TABLE
  2
LTYPE
  5
5
330
0
100
AcDbSymbolTable
 70
     6
  0
LTYPE
  5
14
330
5
100
AcDbSymbolTableRecord
100
AcDbLinetypeTableRecord
  2
ByBlock
 70
     0
  3

 72
    65
 73
     0
 40
0.0
  0
LTYPE
  5
15
330
5
100
AcDbSymbolTableRecord
100
AcDbLinetypeTableRecord
  2
ByLayer
 70
     0
  3

 72
    65
 73
     0
 40
0.0
  0
LTYPE
  5
16
330
5
100
AcDbSymbolTableRecord
100
AcDbLinetypeTableRecord
  2
Continuous
 70
     0
  3
Solid line
 72
    65
 73
     0
 40
0.0
  0
LTYPE
  5
5E
330
5
100
AcDbSymbolTableRecord
100
AcDbLinetypeTableRecord
  2
HIDDEN
 70
     0
  3
Hidden __ __ __ __ __ __ __ __ __ __ __ __ __ __
 72
    65
 73
     2
 40
1.905
 49
1.27
 74
     0
 49
-0.635
 74
     0
  0
LTYPE
  5
5F
330
5
100
AcDbSymbolTableRecord
100
AcDbLinetypeTableRecord
  2
PHANTOM
 70
     0
  3
Phantom ______  __  __  ______  __  __  ______
 72
    65
 73
     6
 40
12.7
 49
6.35
 74
     0
 49
-1.27
 74
     0
 49
1.27
 74
     0
 49
-1.27
 74
     0
 49
1.27
 74
     0
 49
-1.27
 74
     0
  0
LTYPE
  5
60
330
5
100
AcDbSymbolTableRecord
100
AcDbLinetypeTableRecord
  2
CENTER
 70
     0
  3
Center ____ _ ____ _ ____ _ ____ _ ____ _ ____
 72
    65
 73
     4
 40
10.16
 49
6.35
 74
     0
 49
-1.27
 74
     0
 49
1.27
 74
     0
 49
-1.27
 74
     0
  0
LTYPE
  5
61
330
5
100
AcDbSymbolTableRecord
100
AcDbLinetypeTableRecord
  2
CENTERX2
 70
     0
  3
Center (2x) ________  __  ________  __  _____
 72
    65
 73
     4
 40
20.32
 49
12.7
 74
     0
 49
-2.54
 74
     0
 49
2.54
 74
     0
 49
-2.54
 74
     0
  0
LTYPE
  5
62
330
5
100
AcDbSymbolTableRecord
100
AcDbLinetypeTableRecord
  2
DOT2
 70
     0
  3
Dot (.5x) ........................................
 72
    65
 73
     2
 40
0.635
 49
0.0
 74
     0
 49
-0.635
 74
     0
  0
ENDTAB
  0
TABLE
  2
LAYER
  5
2
330
0
100
AcDbSymbolTable
 70
     2
  0
LAYER
  5
10
330
2
100
AcDbSymbolTableRecord
100
AcDbLayerTableRecord
  2
0
 70
     0
 62
     7
  6
Continuous
370
    -3
390
F
  0
LAYER
  5
63
330
2
100
AcDbSymbolTableRecord
100
AcDbLayerTableRecord
  2
SLD-0
 70
     0
 62
   179
  6
Continuous
370
    -3
390
F
  0
ENDTAB
  0
TABLE
  2
STYLE
  5
3
330
0
100
AcDbSymbolTable
 70
     2
  0
STYLE
  5
11
330
3
100
AcDbSymbolTableRecord
100
AcDbTextStyleTableRecord
  2
Standard
 70
     0
 40
0.0
 41
1.0
 50
0.0
 71
     0
 42
3.5
  3
txt
  4

  0
STYLE
  5
19B
330
3
100
AcDbSymbolTableRecord
100
AcDbTextStyleTableRecord
  2
SLDTEXTSTYLE0
 70
     0
 40
0.0
 41
0.7
 50
0.0
 71
     0
 42
3.5
  3
TXT
  4

  0
ENDTAB
  0
TABLE
  2
VIEW
  5
6
330
0
100
AcDbSymbolTable
 70
     0
  0
ENDTAB
  0
TABLE
  2
UCS
  5
7
330
0
100
AcDbSymbolTable
 70
     0
  0
ENDTAB
  0
TABLE
  2
APPID
  5
9
330
0
100
AcDbSymbolTable
 70
     1
  0
APPID
  5
12
330
9
100
AcDbSymbolTableRecord
100
AcDbRegAppTableRecord
  2
ACAD
 70
     0
  0
ENDTAB
  0
TABLE
  2
DIMSTYLE
  5
A
330
0
100
AcDbSymbolTable
 70
     1
100
AcDbDimStyleTable
  0
DIMSTYLE
105
27
330
A
100
AcDbSymbolTableRecord
100
AcDbDimStyleTableRecord
  2
ISO-25
 70
     0
 41
2.5
 42
0.625
 43
3.75
 44
1.25
 73
     0
 74
     0
 77
     1
 78
     8
140
2.5
141
2.5
143
0.0393700787
147
0.625
171
     3
172
     1
178
     0
271
     2
272
     2
274
     3
278
    44
283
     0
284
     8
340
11
  0
ENDTAB
  0
TABLE
  2
BLOCK_RECORD
  5
1
330
0
100
AcDbSymbolTable
 70
    13
  0
BLOCK_RECORD
  5
1F
330
1
100
AcDbSymbolTableRecord
100
AcDbBlockTableRecord
  2
*Model_Space
340
22
  0
BLOCK_RECORD
  5
1B
330
1
100
AcDbSymbolTableRecord
100
AcDbBlockTableRecord
  2
*Paper_Space
340
1E
  0
BLOCK_RECORD
  5
23
330
1
100
AcDbSymbolTableRecord
100
AcDbBlockTableRecord
  2
*Paper_Space0
340
26
  0
BLOCK_RECORD
  5
64
330
1
100
AcDbSymbolTableRecord
100
AcDbBlockTableRecord
  2
panel1_v1
340
0
102
{BLKREFS
331
190
102
}
  0
BLOCK_RECORD
  5
6F
330
1
100
AcDbSymbolTableRecord
100
AcDbBlockTableRecord
  2
panel2_v1
340
0
102
{BLKREFS
331
191
102
}
  0
BLOCK_RECORD
  5
78
330
1
100
AcDbSymbolTableRecord
100
AcDbBlockTableRecord
  2
panel3v1
340
0
102
{BLKREFS
331
18E
102
}
  0
BLOCK_RECORD
  5
D7
330
1
100
AcDbSymbolTableRecord
100
AcDbBlockTableRecord
  2
panel4_v1
340
0
102
{BLKREFS
331
18F
102
}
  0
BLOCK_RECORD
  5
FD
330
1
100
AcDbSymbolTableRecord
100
AcDbBlockTableRecord
  2
panel5_v1
340
0
102
{BLKREFS
331
193
102
}
  0
BLOCK_RECORD
  5
10C
330
1
100
AcDbSymbolTableRecord
100
AcDbBlockTableRecord
  2
panel6_v1
340
0
102
{BLKREFS
331
192
102
}
  0
BLOCK_RECORD
  5
126
330
1
100
AcDbSymbolTableRecord
100
AcDbBlockTableRecord
  2
panel7_v1
340
0
102
{BLKREFS
331
194
102
}
  0
BLOCK_RECORD
  5
131
330
1
100
AcDbSymbolTableRecord
100
AcDbBlockTableRecord
  2
panel8_v1
340
0
102
{BLKREFS
331
196
102
}
  0
BLOCK_RECORD
  5
13C
330
1
100
AcDbSymbolTableRecord
100
AcDbBlockTableRecord
  2
panel9_v1
340
0
102
{BLKREFS
331
197
102
}
  0
BLOCK_RECORD
  5
147
330
1
100
AcDbSymbolTableRecord
100
AcDbBlockTableRecord
  2
panel10_v1
340
0
102
{BLKREFS
331
195
102
}
  0
BLOCK_RECORD
  5
166
330
1
100
AcDbSymbolTableRecord
100
AcDbBlockTableRecord
  2
panel11_v1
340
0
102
{BLKREFS
331
198
331
19A
102
}
  0
BLOCK_RECORD
  5
183
330
1
100
AcDbSymbolTableRecord
100
AcDbBlockTableRecord
  2
panel12_v1
340
0
102
{BLKREFS
331
199
102
}
  0
ENDTAB
  0
ENDSEC
  0
SECTION
  2
BLOCKS
  0
BLOCK
  5
20
330
1F
100
AcDbEntity
  8
0
100
AcDbBlockBegin
  2
*Model_Space
 70
     0
 10
0.0
 20
0.0
 30
0.0
  3
*Model_Space
  1

  0
ENDBLK
  5
21
330
1F
100
AcDbEntity
  8
0
100
AcDbBlockEnd
  0
BLOCK
  5
1C
330
1B
100
AcDbEntity
 67
     1
  8
0
100
AcDbBlockBegin
  2
*Paper_Space
 70
     0
 10
0.0
 20
0.0
 30
0.0
  3
*Paper_Space
  1

  0
ENDBLK
  5
1D
330
1B
100
AcDbEntity
 67
     1
  8
0
100
AcDbBlockEnd
  0
BLOCK
  5
24
330
23
100
AcDbEntity
  8
0
100
AcDbBlockBegin
  2
*Paper_Space0
 70
     0
 10
0.0
 20
0.0
 30
0.0
  3
*Paper_Space0
  1

  0
ENDBLK
  5
25
330
23
100
AcDbEntity
  8
0
100
AcDbBlockEnd
  0
BLOCK
  5
65
330
64
100
AcDbEntity
  8
0
100
AcDbBlockBegin
  2
panel1_v1
 70
     0
 10
0.0
 20
0.0
 30
0.0
  3
panel1_v1
  1

  0
CIRCLE
  5
67
330
64
100
AcDbEntity
  8
0
  6
Continuous
 62
     7
370
    25
100
AcDbCircle
 10
4.0
 20
6.0
 30
0.0
 40
1.500000000000001
  0
CIRCLE
  5
68
330
64
100
AcDbEntity
  8
0
  6
Continuous
 62
     7
370
    25
100
AcDbCircle
 10
89.0
 20
18.7615210132
 30
0.0
 40
1.499999999999986
  0
CIRCLE
  5
69
330
64
100
AcDbEntity
  8
0
  6
Continuous
 62
     7
370
    25
100
AcDbCircle
 10
89.0
 20
6.0
 30
0.0
 40
1.5
  0
CIRCLE
  5
6A
330
64
100
AcDbEntity
  8
0
  6
Continuous
 62
     7
370
    25
100
AcDbCircle
 10
4.0
 20
18.7615210132
 30
0.0
 40
1.500000000000001
  0
LINE
  5
6B
330
64
100
AcDbEntity
  8
0
  6
Continuous
 62
     7
370
    25
100
AcDbLine
 10
93.0
 20
0.0
 30
0.0
 11
0.0
 21
0.0
 31
0.0
  0
LINE
  5
6C
330
64
100
AcDbEntity
  8
0
  6
Continuous
 62
     7
370
    25
100
AcDbLine
 10
93.0
 20
0.0
 30
0.0
 11
93.0
 21
22.0665210132
 31
0.0
  0
LINE
  5
6D
330
64
100
AcDbEntity
  8
0
  6
Continuous
 62
     7
370
    25
100
AcDbLine
 10
93.0
 20
22.0665210132
 30
0.0
 11
0.0
 21
22.0665210132
 31
0.0
  0
LINE
  5
6E
330
64
100
AcDbEntity
  8
0
  6
Continuous
 62
     7
370
    25
100
AcDbLine
 10
0.0
 20
22.0665210132
 30
0.0
 11
0.0
 21
0.0
 31
0.0
  0
ENDBLK
  5
66
330
64
100
AcDbEntity
  8
0
100
AcDbBlockEnd
  0
BLOCK
  5
70
330
6F
100
AcDbEntity
  8
0
100
AcDbBlockBegin
  2
panel2_v1
 70
     0
 10
0.0
 20
0.0
 30
0.0
  3
panel2_v1
  1

  0
CIRCLE
  5
72
330
6F
100
AcDbEntity
  8
0
  6
Continuous
 62
     7
370
    25
100
AcDbCircle
 10
4.0
 20
3.3064153438
 30
0.0
 40
1.500000000000001
  0
CIRCLE
  5
73
330
6F
100
AcDbEntity
  8
0
  6
Continuous
 62
     7
370
    25
100
AcDbCircle
 10
89.0
 20
3.3064153438
 30
0.0
 40
1.5
  0
LINE
  5
74
330
6F
100
AcDbEntity
  8
0
  6
Continuous
 62
     7
370
    25
100
AcDbLine
 10
93.0
 20
0.0
 30
0.0
 11
0.0
 21
0.0
 31
0.0
  0
LINE
  5
75
330
6F
100
AcDbEntity
  8
0
  6
Continuous
 62
     7
370
    25
100
AcDbLine
 10
93.0
 20
0.0
 30
0.0
 11
93.0
 21
22.8633962332
 31
0.0
  0
LINE
  5
76
330
6F
100
AcDbEntity
  8
0
  6
Continuous
 62
     7
370
    25
100
AcDbLine
 10
93.0
 20
22.8633962332
 30
0.0
 11
0.0
 21
22.8633962332
 31
0.0
  0
LINE
  5
77
330
6F
100
AcDbEntity
  8
0
  6
Continuous
 62
     7
370
    25
100
AcDbLine
 10
0.0
 20
22.8633962332
 30
0.0
 11
0.0
 21
0.0
 31
0.0
  0
ENDBLK
  5
71
330
6F
100
AcDbEntity
  8
0
100
AcDbBlockEnd
  0
BLOCK
  5
79
330
78
100
AcDbEntity
  8
0
100
AcDbBlockBegin
  2
panel3v1
 70
     0
 10
0.0
 20
0.0
 30
0.0
  3
panel3v1
  1

  0
CIRCLE
  5
7B
330
78
100
AcDbEntity
  8
0
  6
Continuous
 62
     7
370
    25
100
AcDbCircle
 10
25.4309943911
 20
101.4410981655
 30
0.0
 40
1.5
  0
CIRCLE
  5
7C
330
78
100
AcDbEntity
  8
0
  6
Continuous
 62
     7
370
    25
100
AcDbCircle
 10
67.9309943911
 20
101.4410981655
 30
0.0
 40
1.499999999999986
  0
CIRCLE
  5
7D
330
78
100
AcDbEntity
  8
0
  6
Continuous
 62
     7
370
    25
100
AcDbCircle
 10
67.9309943911
 20
19.3797924009
 30
0.0
 40
1.5
  0
CIRCLE
  5
7E
330
78
100
AcDbEntity
  8
0
  6
Continuous
 62
     7
370
    25
100
AcDbCircle
 10
25.4309943911
 20
19.3797924009
 30
0.0
 40
1.500000000000004
  0
CIRCLE
  5
7F
330
78
100
AcDbEntity
  8
0
  6
Continuous
 62
     7
370
    25
100
AcDbCircle
 10
4.1809943911
 20
101.4410981655
 30
0.0
 40
1.500000000000014
  0
CIRCLE
  5
80
330
78
100
AcDbEntity
  8
0
  6
Continuous
 62
     7
370
    25
100
AcDbCircle
 10
89.1809943911
 20
19.3797924009
 30
0.0
 40
1.500000000000014
  0
CIRCLE
  5
81
330
78
100
AcDbEntity
  8
0
  6
Continuous
 62
     7
370
    25
100
AcDbCircle
 10
89.1809943911
 20
101.4410981655
 30
0.0
 40
1.5
  0
CIRCLE
  5
82
330
78
100
AcDbEntity
  8
0
  6
Continuous
 62
     7
370
    25
100
AcDbCircle
 10
4.1809943911
 20
19.3797924009
 30
0.0
 40
1.500000000000007
  0
LINE
  5
83
330
78
100
AcDbEntity
  8
0
  6
Continuous
 62
     7
370
    25
100
AcDbLine
 10
16.7809943911
 20
25.8604452832
 30
0.0
 11
2.5809943911
 21
25.8604452832
 31
0.0
  0
LINE
  5
84
330
78
100
AcDbEntity
  8
0
  6
Continuous
 62
     7
370
    25
100
AcDbLine
 10
2.5809943911
 20
39.4604452832
 30
0.0
 11
2.5809943911
 21
25.8604452832
 31
0.0
  0
LINE
  5
85
330
78
100
AcDbEntity
  8
0
  6
Continuous
 62
     7
370
    25
100
AcDbLine
 10
16.7809943911
 20
39.4604452832
 30
0.0
 11
2.5809943911
 21
39.4604452832
 31
0.0
  0
LINE
  5
86
330
78
100
AcDbEntity
  8
0
  6
Continuous
 62
     7
370
    25
100
AcDbLine
 10
16.7809943911
 20
39.4604452832
 30
0.0
 11
16.7809943911
 21
25.8604452832
 31
0.0
  0
LINE
  5
87
330
78
100
AcDbEntity
  8
0
  6
Continuous
 62
     7
370
    25
100
AcDbLine
 10
16.7809943911
 20
44.3604452832
 30
0.0
 11
2.5809943911
 21
44.3604452832
 31
0.0
  0
LINE
  5
88
330
78
100
AcDbEntity
  8
0
  6
Continuous
 62
     7
370
    25
100
AcDbLine
 10
2.5809943911
 20
57.9604452832
 30
0.0
 11
2.5809943911
 21
44.3604452832
 31
0.0
  0
LINE
  5
89
330
78
100
AcDbEntity
  8
0
  6
Continuous
 62
     7
370
    25
100
AcDbLine
 10
16.7809943911
 20
57.9604452832
 30
0.0
 11
2.5809943911
 21
57.9604452832
 31
0.0
  0
LINE
  5
8A
330
78
100
AcDbEntity
  8
0
  6
Continuous
 62
     7
370
    25
100
AcDbLine
 10
16.7809943911
 20
57.9604452832
 30
0.0
 11
16.7809943911
 21
44.3604452832
 31
0.0
  0
LINE
  5
8B
330
78
100
AcDbEntity
  8
0
  6
Continuous
 62
     7
370
    25
100
AcDbLine
 10
16.7809943911
 20
62.8604452832
 30
0.0
 11
2.5809943911
 21
62.8604452832
 31
0.0
  0
LINE
  5
8C
330
78
100
AcDbEntity
  8
0
  6
Continuous
 62
     7
370
    25
100
AcDbLine
 10
2.5809943911
 20
76.4604452832
 30
0.0
 11
2.5809943911
 21
62.8604452832
 31
0.0
  0
LINE
  5
8D
330
78
100
AcDbEntity
  8
0
  6
Continuous
 62
     7
370
    25
100
AcDbLine
 10
16.7809943911
 20
76.4604452832
 30
0.0
 11
2.5809943911
 21
76.4604452832
 31
0.0
  0
LINE
  5
8E
330
78
100
AcDbEntity
  8
0
  6
Continuous
 62
     7
370
    25
100
AcDbLine
 10
16.7809943911
 20
76.4604452832
 30
0.0
 11
16.7809943911
 21
62.8604452832
 31
0.0
  0
LINE
  5
8F
330
78
100
AcDbEntity
  8
0
  6
Continuous
 62
     7
370
    25
100
AcDbLine
 10
16.7809943911
 20
81.3604452832
 30
0.0
 11
2.5809943911
 21
81.3604452832
 31
0.0
  0
LINE
  5
90
330
78
100
AcDbEntity
  8
0
  6
Continuous
 62
     7
370
    25
100
AcDbLine
 10
2.5809943911
 20
94.9604452832
 30
0.0
 11
2.5809943911
 21
81.3604452832
 31
0.0
  0
LINE
  5
91
330
78
100
AcDbEntity
  8
0
  6
Continuous
 62
     7
370
    25
100
AcDbLine
 10
16.7809943911
 20
94.9604452832
 30
0.0
 11
2.5809943911
 21
94.9604452832
 31
0.0
  0
LINE
  5
92
330
78
100
AcDbEntity
  8
0
  6
Continuous
 62
     7
370
    25
100
AcDbLine
 10
16.7809943911
 20
94.9604452832
 30
0.0
 11
16.7809943911
 21
81.3604452832
 31
0.0
  0
LINE
  5
93
330
78
100
AcDbEntity
  8
0
  6
Continuous
 62
     7
370
    25
100
AcDbLine
 10
35.2809943911
 20
25.8604452832
 30
0.0
 11
21.0809943911
 21
25.8604452832
 31
0.0
  0
LINE
  5
94
330
78
100
AcDbEntity
  8
0
  6
Continuous
 62
     7
370
    25
100
AcDbLine
 10
21.0809943911
 20
39.4604452832
 30
0.0
 11
21.0809943911
 21
25.8604452832
 31
0.0
  0
LINE
  5
95
330
78
100
AcDbEntity
  8
0
  6
Continuous
 62
     7
370
    25
100
AcDbLine
 10
35.2809943911
 20
39.4604452832
 30
0.0
 11
21.0809943911
 21
39.4604452832
 31
0.0
  0
LINE
  5
96
330
78
100
AcDbEntity
  8
0
  6
Continuous
 62
     7
370
    25
100
AcDbLine
 10
35.2809943911
 20
39.4604452832
 30
0.0
 11
35.2809943911
 21
25.8604452832
 31
0.0
  0
LINE
  5
97
330
78
100
AcDbEntity
  8
0
  6
Continuous
 62
     7
370
    25
100
AcDbLine
 10
35.2809943911
 20
81.3604452832
 30
0.0
 11
21.0809943911
 21
81.3604452832
 31
0.0
  0
LINE
  5
98
330
78
100
AcDbEntity
  8
0
  6
Continuous
 62
     7
370
    25
100
AcDbLine
 10
21.0809943911
 20
94.9604452832
 30
0.0
 11
21.0809943911
 21
81.3604452832
 31
0.0
  0
LINE
  5
99
330
78
100
AcDbEntity
  8
0
  6
Continuous
 62
     7
370
    25
100
AcDbLine
 10
35.2809943911
 20
94.9604452832
 30
0.0
 11
21.0809943911
 21
94.9604452832
 31
0.0
  0
LINE
  5
9A
330
78
100
AcDbEntity
  8
0
  6
Continuous
 62
     7
370
    25
100
AcDbLine
 10
35.2809943911
 20
94.9604452832
 30
0.0
 11
35.2809943911
 21
81.3604452832
 31
0.0
  0
LINE
  5
9B
330
78
100
AcDbEntity
  8
0
  6
Continuous
 62
     7
370
    25
100
AcDbLine
 10
53.7809943911
 20
25.8604452832
 30
0.0
 11
39.5809943911
 21
25.8604452832
 31
0.0
  0
LINE
  5
9C
330
78
100
AcDbEntity
  8
0
  6
Continuous
 62
     7
370
    25
100
AcDbLine
 10
39.5809943911
 20
39.4604452832
 30
0.0
 11
39.5809943911
 21
25.8604452832
 31
0.0
  0
LINE
  5
9D
330
78
100
AcDbEntity
  8
0
  6
Continuous
 62
     7
370
    25
100
AcDbLine
 10
53.7809943911
 20
39.4604452832
 30
0.0
 11
39.5809943911
 21
39.4604452832
 31
0.0
  0
LINE
  5
9E
330
78
100
AcDbEntity
  8
0
  6
Continuous
 62
     7
370
    25
100
AcDbLine
 10
53.7809943911
 20
39.4604452832
 30
0.0
 11
53.7809943911
 21
25.8604452832
 31
0.0
  0
LINE
  5
9F
330
78
100
AcDbEntity
  8
0
  6
Continuous
 62
     7
370
    25
100
AcDbLine
 10
53.7809943911
 20
81.3604452832
 30
0.0
 11
39.5809943911
 21
81.3604452832
 31
0.0
  0
LINE
  5
A0
330
78
100
AcDbEntity
  8
0
  6
Continuous
 62
     7
370
    25
100
AcDbLine
 10
39.5809943911
 20
94.9604452832
 30
0.0
 11
39.5809943911
 21
81.3604452832
 31
0.0
  0
LINE
  5
A1
330
78
100
AcDbEntity
  8
0
  6
Continuous
 62
     7
370
    25
100
AcDbLine
 10
53.7809943911
 20
94.9604452832
 30
0.0
 11
39.5809943911
 21
94.9604452832
 31
0.0
  0
LINE
  5
A2
330
78
100
AcDbEntity
  8
0
  6
Continuous
 62
     7
370
    25
100
AcDbLine
 10
53.7809943911
 20
94.9604452832
 30
0.0
 11
53.7809943911
 21
81.3604452832
 31
0.0
  0
LINE
  5
A3
330
78
100
AcDbEntity
  8
0
  6
Continuous
 62
     7
370
    25
100
AcDbLine
 10
72.2809943911
 20
25.8604452832
 30
0.0
 11
58.0809943911
 21
25.8604452832
 31
0.0
  0
LINE
  5
A4
330
78
100
AcDbEntity
  8
0
  6
Continuous
 62
     7
370
    25
100
AcDbLine
 10
58.0809943911
 20
39.4604452832
 30
0.0
 11
58.0809943911
 21
25.8604452832
 31
0.0
  0
LINE
  5
A5
330
78
100
AcDbEntity
  8
0
  6
Continuous
 62
     7
370
    25
100
AcDbLine
 10
72.2809943911
 20
39.4604452832
 30
0.0
 11
58.0809943911
 21
39.4604452832
 31
0.0
  0
LINE
  5
A6
330
78
100
AcDbEntity
  8
0
  6
Continuous
 62
     7
370
    25
100
AcDbLine
 10
72.2809943911
 20
39.4604452832
 30
0.0
 11
72.2809943911
 21
25.8604452832
 31
0.0
  0
LINE
  5
A7
330
78
100
AcDbEntity
  8
0
  6
Continuous
 62
     7
370
    25
100
AcDbLine
 10
72.2809943911
 20
81.3604452832
 30
0.0
 11
58.0809943911
 21
81.3604452832
 31
0.0
  0
LINE
  5
A8
330
78
100
AcDbEntity
  8
0
  6
Continuous
 62
     7
370
    25
100
AcDbLine
 10
58.0809943911
 20
94.9604452832
 30
0.0
 11
58.0809943911
 21
81.3604452832
 31
0.0
  0
LINE
  5
A9
330
78
100
AcDbEntity
  8
0
  6
Continuous
 62
     7
370
    25
100
AcDbLine
 10
72.2809943911
 20
94.9604452832
 30
0.0
 11
58.0809943911
 21
94.9604452832
 31
0.0
  0
LINE
  5
AA
330
78
100
AcDbEntity
  8
0
  6
Continuous
 62
     7
370
    25
100
AcDbLine
 10
72.2809943911
 20
94.9604452832
 30
0.0
 11
72.2809943911
 21
81.3604452832
 31
0.0
  0
LINE
  5
AB
330
78
100
AcDbEntity
  8
0
  6
Continuous
 62
     7
370
    25
100
AcDbLine
 10
90.7809943911
 20
25.8604452832
 30
0.0
 11
76.5809943911
 21
25.8604452832
 31
0.0
  0
LINE
  5
AC
330
78
100
AcDbEntity
  8
0
  6
Continuous
 62
     7
370
    25
100
AcDbLine
 10
76.5809943911
 20
39.4604452832
 30
0.0
 11
76.5809943911
 21
25.8604452832
 31
0.0
  0
LINE
  5
AD
330
78
100
AcDbEntity
  8
0
  6
Continuous
 62
     7
370
    25
100
AcDbLine
 10
90.7809943911
 20
39.4604452832
 30
0.0
 11
76.5809943911
 21
39.4604452832
 31
0.0
  0
LINE
  5
AE
330
78
100
AcDbEntity
  8
0
  6
Continuous
 62
     7
370
    25
100
AcDbLine
 10
90.7809943911
 20
39.4604452832
 30
0.0
 11
90.7809943911
 21
25.8604452832
 31
0.0
  0
LINE
  5
AF
330
78
100
AcDbEntity
  8
0
  6
Continuous
 62
     7
370
    25
100
AcDbLine
 10
90.7809943911
 20
44.3604452832
 30
0.0
 11
76.5809943911
 21
44.3604452832
 31
0.0
  0
LINE
  5
B0
330
78
100
AcDbEntity
  8
0
  6
Continuous
 62
     7
370
    25
100
AcDbLine
 10
76.5809943911
 20
57.9604452832
 30
0.0
 11
76.5809943911
 21
44.3604452832
 31
0.0
  0
LINE
  5
B1
330
78
100
AcDbEntity
  8
0
  6
Continuous
 62
     7
370
    25
100
AcDbLine
 10
90.7809943911
 20
57.9604452832
 30
0.0
 11
76.5809943911
 21
57.9604452832
 31
0.0
  0
LINE
  5
B2
330
78
100
AcDbEntity
  8
0
  6
Continuous
 62
     7
370
    25
100
AcDbLine
 10
90.7809943911
 20
57.9604452832
 30
0.0
 11
90.7809943911
 21
44.3604452832
 31
0.0
  0
LINE
  5
B3
330
78
100
AcDbEntity
  8
0
  6
Continuous
 62
     7
370
    25
100
AcDbLine
 10
90.7809943911
 20
62.8604452832
 30
0.0
 11
76.5809943911
 21
62.8604452832
 31
0.0
  0
LINE
  5
B4
330
78
100
AcDbEntity
  8
0
  6
Continuous
 62
     7
370
    25
100
AcDbLine
 10
76.5809943911
 20
76.4604452832
 30
0.0
 11
76.5809943911
 21
62.8604452832
 31
0.0
  0
LINE
  5
B5
330
78
100
AcDbEntity
  8
0
  6
Continuous
 62
     7
370
    25
100
AcDbLine
 10
90.7809943911
 20
76.4604452832
 30
0.0
 11
76.5809943911
 21
76.4604452832
 31
0.0
  0
LINE
  5
B6
330
78
100
AcDbEntity
  8
0
  6
Continuous
 62
     7
370
    25
100
AcDbLine
 10
90.7809943911
 20
76.4604452832
 30
0.0
 11
90.7809943911
 21
62.8604452832
 31
0.0
  0
LINE
  5
B7
330
78
100
AcDbEntity
  8
0
  6
Continuous
 62
     7
370
    25
100
AcDbLine
 10
72.2809943911
 20
62.8604452832
 30
0.0
 11
58.0809943911
 21
62.8604452832
 31
0.0
  0
LINE
  5
B8
330
78
100
AcDbEntity
  8
0
  6
Continuous
 62
     7
370
    25
100
AcDbLine
 10
58.0809943911
 20
76.4604452832
 30
0.0
 11
58.0809943911
 21
62.8604452832
 31
0.0
  0
LINE
  5
B9
330
78
100
AcDbEntity
  8
0
  6
Continuous
 62
     7
370
    25
100
AcDbLine
 10
72.2809943911
 20
76.4604452832
 30
0.0
 11
58.0809943911
 21
76.4604452832
 31
0.0
  0
LINE
  5
BA
330
78
100
AcDbEntity
  8
0
  6
Continuous
 62
     7
370
    25
100
AcDbLine
 10
72.2809943911
 20
76.4604452832
 30
0.0
 11
72.2809943911
 21
62.8604452832
 31
0.0
  0
LINE
  5
BB
330
78
100
AcDbEntity
  8
0
  6
Continuous
 62
     7
370
    25
100
AcDbLine
 10
90.7809943911
 20
81.3604452832
 30
0.0
 11
76.5809943911
 21
81.3604452832
 31
0.0
  0
LINE
  5
BC
330
78
100
AcDbEntity
  8
0
  6
Continuous
 62
     7
370
    25
100
AcDbLine
 10
76.5809943911
 20
94.9604452832
 30
0.0
 11
76.5809943911
 21
81.3604452832
 31
0.0
  0
LINE
  5
BD
330
78
100
AcDbEntity
  8
0
  6
Continuous
 62
     7
370
    25
100
AcDbLine
 10
90.7809943911
 20
94.9604452832
 30
0.0
 11
76.5809943911
 21
94.9604452832
 31
0.0
  0
LINE
  5
BE
330
78
100
AcDbEntity
  8
0
  6
Continuous
 62
     7
370
    25
100
AcDbLine
 10
90.7809943911
 20
94.9604452832
 30
0.0
 11
90.7809943911
 21
81.3604452832
 31
0.0
  0
LINE
  5
BF
330
78
100
AcDbEntity
  8
0
  6
Continuous
 62
     7
370
    25
100
AcDbLine
 10
0.1809943911
 20
107.4410981655
 30
0.0
 11
0.1809943911
 21
13.3797924009
 31
0.0
  0
LINE
  5
C0
330
78
100
AcDbEntity
  8
0
  6
Continuous
 62
     7
370
    25
100
AcDbLine
 10
0.1809943911
 20
13.3797924009
 30
0.0
 11
93.1809943911
 21
13.3797924009
 31
0.0
  0
LINE
  5
C1
330
78
100
AcDbEntity
  8
0
  6
Continuous
 62
     7
370
    25
100
AcDbLine
 10
93.1809943911
 20
107.4410981655
 30
0.0
 11
93.1809943911
 21
13.3797924009
 31
0.0
  0
LINE
  5
C2
330
78
100
AcDbEntity
  8
0
  6
Continuous
 62
     7
370
    25
100
AcDbLine
 10
93.1809943911
 20
107.4410981655
 30
0.0
 11
0.1809943911
 21
107.4410981655
 31
0.0
  0
LINE
  5
C3
330
78
100
AcDbEntity
  8
0
  6
Continuous
 62
     7
370
    25
100
AcDbLine
 10
39.5809943911
 20
76.4604452832
 30
0.0
 11
39.5809943911
 21
62.8604452832
 31
0.0
  0
LINE
  5
C4
330
78
100
AcDbEntity
  8
0
  6
Continuous
 62
     7
370
    25
100
AcDbLine
 10
53.7809943911
 20
76.4604452832
 30
0.0
 11
39.5809943911
 21
76.4604452832
 31
0.0
  0
LINE
  5
C5
330
78
100
AcDbEntity
  8
0
  6
Continuous
 62
     7
370
    25
100
AcDbLine
 10
53.7809943911
 20
76.4604452832
 30
0.0
 11
53.7809943911
 21
62.8604452832
 31
0.0
  0
LINE
  5
C6
330
78
100
AcDbEntity
  8
0
  6
Continuous
 62
     7
370
    25
100
AcDbLine
 10
53.7809943911
 20
62.8604452832
 30
0.0
 11
39.5809943911
 21
62.8604452832
 31
0.0
  0
LINE
  5
C7
330
78
100
AcDbEntity
  8
0
  6
Continuous
 62
     7
370
    25
100
AcDbLine
 10
21.0809943911
 20
76.4604452832
 30
0.0
 11
21.0809943911
 21
62.8604452832
 31
0.0
  0
LINE
  5
C8
330
78
100
AcDbEntity
  8
0
  6
Continuous
 62
     7
370
    25
100
AcDbLine
 10
35.2809943911
 20
76.4604452832
 30
0.0
 11
21.0809943911
 21
76.4604452832
 31
0.0
  0
LINE
  5
C9
330
78
100
AcDbEntity
  8
0
  6
Continuous
 62
     7
370
    25
100
AcDbLine
 10
35.2809943911
 20
76.4604452832
 30
0.0
 11
35.2809943911
 21
62.8604452832
 31
0.0
  0
LINE
  5
CA
330
78
100
AcDbEntity
  8
0
  6
Continuous
 62
     7
370
    25
100
AcDbLine
 10
35.2809943911
 20
62.8604452832
 30
0.0
 11
21.0809943911
 21
62.8604452832
 31
0.0
  0
LINE
  5
CB
330
78
100
AcDbEntity
  8
0
  6
Continuous
 62
     7
370
    25
100
AcDbLine
 10
58.0809943911
 20
57.9604452832
 30
0.0
 11
58.0809943911
 21
44.3604452832
 31
0.0
  0
LINE
  5
CC
330
78
100
AcDbEntity
  8
0
  6
Continuous
 62
     7
370
    25
100
AcDbLine
 10
72.2809943911
 20
57.9604452832
 30
0.0
 11
58.0809943911
 21
57.9604452832
 31
0.0
  0
LINE
  5
CD
330
78
100
AcDbEntity
  8
0
  6
Continuous
 62
     7
370
    25
100
AcDbLine
 10
72.2809943911
 20
57.9604452832
 30
0.0
 11
72.2809943911
 21
44.3604452832
 31
0.0
  0
LINE
  5
CE
330
78
100
AcDbEntity
  8
0
  6
Continuous
 62
     7
370
    25
100
AcDbLine
 10
72.2809943911
 20
44.3604452832
 30
0.0
 11
58.0809943911
 21
44.3604452832
 31
0.0
  0
LINE
  5
CF
330
78
100
AcDbEntity
  8
0
  6
Continuous
 62
     7
370
    25
100
AcDbLine
 10
39.5809943911
 20
57.9604452832
 30
0.0
 11
39.5809943911
 21
44.3604452832
 31
0.0
  0
LINE
  5
D0
330
78
100
AcDbEntity
  8
0
  6
Continuous
 62
     7
370
    25
100
AcDbLine
 10
53.7809943911
 20
57.9604452832
 30
0.0
 11
39.5809943911
 21
57.9604452832
 31
0.0
  0
LINE
  5
D1
330
78
100
AcDbEntity
  8
0
  6
Continuous
 62
     7
370
    25
100
AcDbLine
 10
53.7809943911
 20
57.9604452832
 30
0.0
 11
53.7809943911
 21
44.3604452832
 31
0.0
  0
LINE
  5
D2
330
78
100
AcDbEntity
  8
0
  6
Continuous
 62
     7
370
    25
100
AcDbLine
 10
53.7809943911
 20
44.3604452832
 30
0.0
 11
39.5809943911
 21
44.3604452832
 31
0.0
  0
LINE
  5
D3
330
78
100
AcDbEntity
  8
0
  6
Continuous
 62
     7
370
    25
100
AcDbLine
 10
21.0809943911
 20
57.9604452832
 30
0.0
 11
21.0809943911
 21
44.3604452832
 31
0.0
  0
LINE
  5
D4
330
78
100
AcDbEntity
  8
0
  6
Continuous
 62
     7
370
    25
100
AcDbLine
 10
35.2809943911
 20
57.9604452832
 30
0.0
 11
21.0809943911
 21
57.9604452832
 31
0.0
  0
LINE
  5
D5
330
78
100
AcDbEntity
  8
0
  6
Continuous
 62
     7
370
    25
100
AcDbLine
 10
35.2809943911
 20
57.9604452832
 30
0.0
 11
35.2809943911
 21
44.3604452832
 31
0.0
  0
LINE
  5
D6
330
78
100
AcDbEntity
  8
0
  6
Continuous
 62
     7
370
    25
100
AcDbLine
 10
35.2809943911
 20
44.3604452832
 30
0.0
 11
21.0809943911
 21
44.3604452832
 31
0.0
  0
ENDBLK
  5
7A
330
78
100
AcDbEntity
  8
0
100
AcDbBlockEnd
  0
BLOCK
  5
D8
330
D7
100
AcDbEntity
  8
0
100
AcDbBlockBegin
  2
panel4_v1
 70
     0
 10
0.0
 20
0.0
 30
0.0
  3
panel4_v1
  1

  0
CIRCLE
  5
DA
330
D7
100
AcDbEntity
  8
0
  6
Continuous
 62
     7
370
    25
100
AcDbCircle
 10
4.1809943911
 20
25.3357523822
 30
0.0
 40
1.5
  0
CIRCLE
  5
DB
330
D7
100
AcDbEntity
  8
0
  6
Continuous
 62
     7
370
    25
100
AcDbCircle
 10
89.1809943911
 20
25.3357523822
 30
0.0
 40
1.5
  0
CIRCLE
  5
DC
330
D7
100
AcDbEntity
  8
0
  6
Continuous
 62
     7
370
    25
100
AcDbCircle
 10
89.1809943911
 20
64.9560217709
 30
0.0
 40
1.5
  0
CIRCLE
  5
DD
330
D7
100
AcDbEntity
  8
0
  6
Continuous
 62
     7
370
    25
100
AcDbCircle
 10
4.1809943911
 20
64.9560217709
 30
0.0
 40
1.5
  0
CIRCLE
  5
DE
330
D7
100
AcDbEntity
  8
0
  6
Continuous
 62
     7
370
    25
100
AcDbCircle
 10
64.5609943911
 20
67.6931116951
 30
0.0
 40
4.099999999999994
  0
CIRCLE
  5
DF
330
D7
100
AcDbEntity
  8
0
  6
Continuous
 62
     7
370
    25
100
AcDbCircle
 10
28.8009943911
 20
67.6931116951
 30
0.0
 40
4.100000000015857
  0
CIRCLE
  5
E0
330
D7
100
AcDbEntity
  8
0
  6
Continuous
 62
     7
370
    25
100
AcDbCircle
 10
16.8809943911
 20
67.6931116951
 30
0.0
 40
4.100000000019833
  0
CIRCLE
  5
E1
330
D7
100
AcDbEntity
  8
0
  6
Continuous
 62
     7
370
    25
100
AcDbCircle
 10
76.4809943911
 20
67.6931116951
 30
0.0
 40
4.099999999999994
  0
CIRCLE
  5
E2
330
D7
100
AcDbEntity
  8
0
  6
Continuous
 62
     7
370
    25
100
AcDbCircle
 10
40.7209943911
 20
67.6931116951
 30
0.0
 40
4.100000000011875
  0
CIRCLE
  5
E3
330
D7
100
AcDbEntity
  8
0
  6
Continuous
 62
     7
370
    25
100
AcDbCircle
 10
52.6409943911
 20
67.6931116951
 30
0.0
 40
4.100000000007924
  0
CIRCLE
  5
E4
330
D7
100
AcDbEntity
  8
0
  6
Continuous
 62
     7
370
    25
100
AcDbCircle
 10
71.6309943911
 20
51.3431116951
 30
0.0
 40
10.25
  0
ELLIPSE
  5
E5
330
D7
100
AcDbEntity
  8
0
  6
Continuous
 62
     7
370
    25
100
AcDbEllipse
 10
76.4809943911
 20
23.5131153792
 30
0.0
 11
4.7755955543157
 21
0.8462783830396035
 31
0.0
210
0.0
220
0.0
230
1.0
 40
0.5154639175
 41
0.0
 42
6.283185307179586
  0
ELLIPSE
  5
E6
330
D7
100
AcDbEntity
  8
0
  6
Continuous
 62
     7
370
    25
100
AcDbEllipse
 10
64.5609943911
 20
31.2816570452
 30
0.0
 11
4.823346622773869
 21
0.5077670298237607
 31
0.0
210
0.0
220
0.0
230
1.0
 40
0.5154639175
 41
0.0
 42
6.283185307179586
  0
ELLIPSE
  5
E7
330
D7
100
AcDbEntity
  8
0
  6
Continuous
 62
     7
370
    25
100
AcDbEllipse
 10
52.6409943911
 20
30.4471396494
 30
0.0
 11
4.847045751376391
 21
0.1692556766079285
 31
0.0
210
0.0
220
0.0
230
1.0
 40
0.5154639175
 41
0.0
 42
6.283185307179586
  0
ELLIPSE
  5
E8
330
D7
100
AcDbEntity
  8
0
  6
Continuous
 62
     7
370
    25
100
AcDbEllipse
 10
40.7209943911
 20
30.4471396494
 30
0.0
 11
4.8470457513764
 21
-0.1692556766079463
 31
0.0
210
0.0
220
0.0
230
1.0
 40
0.5154639175
 41
0.0
 42
6.283185307179586
  0
ELLIPSE
  5
E9
330
D7
100
AcDbEntity
  8
0
  6
Continuous
 62
     7
370
    25
100
AcDbEllipse
 10
28.8009943911
 20
21.8316570452
 30
0.0
 11
4.823346622773858
 21
-0.5077670298237358
 31
0.0
210
0.0
220
0.0
230
1.0
 40
0.5154639175
 41
0.0
 42
6.283185307179586
  0
ELLIPSE
  5
EA
330
D7
100
AcDbEntity
  8
0
  6
Continuous
 62
     7
370
    25
100
AcDbEllipse
 10
40.7209943911
 20
43.7471396494
 30
0.0
 11
4.847045751376398
 21
-0.1692556766079178
 31
0.0
210
0.0
220
0.0
230
1.0
 40
0.5154639175
 41
0.0
 42
6.283185307179586
  0
ELLIPSE
  5
EB
330
D7
100
AcDbEntity
  8
0
  6
Continuous
 62
     7
370
    25
100
AcDbEllipse
 10
52.6409943911
 20
53.1971396494
 30
0.0
 11
4.847045751376392
 21
0.1692556766079676
 31
0.0
210
0.0
220
0.0
230
1.0
 40
0.5154639175
 41
0.0
 42
6.283185307179586
  0
ELLIPSE
  5
EC
330
D7
100
AcDbEntity
  8
0
  6
Continuous
 62
     7
370
    25
100
AcDbEllipse
 10
28.8009943911
 20
54.0316570452
 30
0.0
 11
-4.823346622773858
 21
0.5077670298237464
 31
0.0
210
0.0
220
0.0
230
1.0
 40
0.5154639175
 41
0.0
 42
6.283185307179586
  0
ELLIPSE
  5
ED
330
D7
100
AcDbEntity
  8
0
  6
Continuous
 62
     7
370
    25
100
AcDbEllipse
 10
16.8809943911
 20
32.9631153792
 30
0.0
 11
4.7755955543157
 21
-0.8462783830395609
 31
0.0
210
0.0
220
0.0
230
1.0
 40
0.5154639175
 41
0.0
 42
6.283185307179586
  0
ELLIPSE
  5
EE
330
D7
100
AcDbEntity
  8
0
  6
Continuous
 62
     7
370
    25
100
AcDbEllipse
 10
16.8809943911
 20
55.7131153792
 30
0.0
 11
4.7755955543157
 21
-0.8462783830395467
 31
0.0
210
0.0
220
0.0
230
1.0
 40
0.5154639175
 41
0.0
 42
6.283185307179586
  0
ELLIPSE
  5
EF
330
D7
100
AcDbEntity
  8
0
  6
Continuous
 62
     7
370
    25
100
AcDbEllipse
 10
16.8809943911
 20
46.2631153792
 30
0.0
 11
-4.775595554315696
 21
0.8462783830395466
 31
0.0
210
0.0
220
0.0
230
1.0
 40
0.5154639175
 41
0.0
 42
6.283185307179586
  0
ELLIPSE
  5
F0
330
D7
100
AcDbEntity
  8
0
  6
Continuous
 62
     7
370
    25
100
AcDbEllipse
 10
16.8809943911
 20
23.5131153792
 30
0.0
 11
-4.775595554315704
 21
0.8462783830395608
 31
0.0
210
0.0
220
0.0
230
1.0
 40
0.5154639175
 41
0.0
 42
6.283185307179586
  0
ELLIPSE
  5
F1
330
D7
100
AcDbEntity
  8
0
  6
Continuous
 62
     7
370
    25
100
AcDbEllipse
 10
40.7209943911
 20
53.1971396494
 30
0.0
 11
4.847045751376406
 21
-0.1692556766078894
 31
0.0
210
0.0
220
0.0
230
1.0
 40
0.5154639175
 41
0.0
 42
6.283185307179586
  0
ELLIPSE
  5
F2
330
D7
100
AcDbEntity
  8
0
  6
Continuous
 62
     7
370
    25
100
AcDbEllipse
 10
28.8009943911
 20
44.5816570452
 30
0.0
 11
4.823346622773845
 21
-0.5077670298237181
 31
0.0
210
0.0
220
0.0
230
1.0
 40
0.5154639175
 41
0.0
 42
6.283185307179586
  0
ELLIPSE
  5
F3
330
D7
100
AcDbEntity
  8
0
  6
Continuous
 62
     7
370
    25
100
AcDbEllipse
 10
52.6409943911
 20
43.7471396494
 30
0.0
 11
4.847045751376386
 21
0.1692556766079463
 31
0.0
210
0.0
220
0.0
230
1.0
 40
0.5154639175
 41
0.0
 42
6.283185307179586
  0
ELLIPSE
  5
F4
330
D7
100
AcDbEntity
  8
0
  6
Continuous
 62
     7
370
    25
100
AcDbEllipse
 10
28.8009943911
 20
31.2816570452
 30
0.0
 11
4.823346622773858
 21
-0.5077670298237607
 31
0.0
210
0.0
220
0.0
230
1.0
 40
0.5154639175
 41
0.0
 42
6.283185307179586
  0
ELLIPSE
  5
F5
330
D7
100
AcDbEntity
  8
0
  6
Continuous
 62
     7
370
    25
100
AcDbEllipse
 10
40.7209943911
 20
20.9971396494
 30
0.0
 11
4.847045751376398
 21
-0.1692556766079143
 31
0.0
210
0.0
220
0.0
230
0.9999999999999999
 40
0.5154639175
 41
0.0
 42
6.283185307179586
  0
ELLIPSE
  5
F6
330
D7
100
AcDbEntity
  8
0
  6
Continuous
 62
     7
370
    25
100
AcDbEllipse
 10
52.6409943911
 20
20.9971396494
 30
0.0
 11
4.847045751376407
 21
0.1692556766079321
 31
0.0
210
0.0
220
0.0
230
1.0
 40
0.5154639175
 41
0.0
 42
6.283185307179586
  0
ELLIPSE
  5
F7
330
D7
100
AcDbEntity
  8
0
  6
Continuous
 62
     7
370
    25
100
AcDbEllipse
 10
64.5609943911
 20
21.8316570452
 30
0.0
 11
4.823346622773855
 21
0.507767029823775
 31
0.0
210
0.0
220
0.0
230
1.0
 40
0.5154639175
 41
0.0
 42
6.283185307179586
  0
ELLIPSE
  5
F8
330
D7
100
AcDbEntity
  8
0
  6
Continuous
 62
     7
370
    25
100
AcDbEllipse
 10
76.4809943911
 20
32.9631153792
 30
0.0
 11
4.7755955543157
 21
0.8462783830396248
 31
0.0
210
0.0
220
0.0
230
1.0
 40
0.5154639175
 41
0.0
 42
6.283185307179586
  0
LINE
  5
F9
330
D7
100
AcDbEntity
  8
0
  6
Continuous
 62
     7
370
    25
100
AcDbLine
 10
0.1809943911
 20
76.7931116951
 30
0.0
 11
0.1809943911
 21
13.498662458
 31
0.0
  0
LINE
  5
FA
330
D7
100
AcDbEntity
  8
0
  6
Continuous
 62
     7
370
    25
100
AcDbLine
 10
0.1809943911
 20
13.498662458
 30
0.0
 11
93.1809943911
 21
13.498662458
 31
0.0
  0
LINE
  5
FB
330
D7
100
AcDbEntity
  8
0
  6
Continuous
 62
     7
370
    25
100
AcDbLine
 10
93.1809943911
 20
13.498662458
 30
0.0
 11
93.1809943911
 21
76.7931116951
 31
0.0
  0
LINE
  5
FC
330
D7
100
AcDbEntity
  8
0
  6
Continuous
 62
     7
370
    25
100
AcDbLine
 10
93.1809943911
 20
76.7931116951
 30
0.0
 11
0.1809943911
 21
76.7931116951
 31
0.0
  0
ENDBLK
  5
D9
330
D7
100
AcDbEntity
  8
0
100
AcDbBlockEnd
  0
BLOCK
  5
FE
330
FD
100
AcDbEntity
  8
0
100
AcDbBlockBegin
  2
panel5_v1
 70
     0
 10
0.0
 20
0.0
 30
0.0
  3
panel5_v1
  1

  0
CIRCLE
  5
100
330
FD
100
AcDbEntity
  8
0
  6
Continuous
 62
     7
370
    25
100
AcDbCircle
 10
89.1809943911
 20
66.2027543018
 30
0.0
 40
1.5
  0
CIRCLE
  5
101
330
FD
100
AcDbEntity
  8
0
  6
Continuous
 62
     7
370
    25
100
AcDbCircle
 10
4.1809943911
 20
17.3527543018
 30
0.0
 40
1.5
  0
CIRCLE
  5
102
330
FD
100
AcDbEntity
  8
0
  6
Continuous
 62
     7
370
    25
100
AcDbCircle
 10
89.1809943911
 20
17.3527543018
 30
0.0
 40
1.5
  0
CIRCLE
  5
103
330
FD
100
AcDbEntity
  8
0
  6
Continuous
 62
     7
370
    25
100
AcDbCircle
 10
4.1809943911
 20
66.2027543018
 30
0.0
 40
1.5
  0
LINE
  5
104
330
FD
100
AcDbEntity
  8
0
  6
Continuous
 62
     7
370
    25
100
AcDbLine
 10
83.0559943911
 20
58.2527543018
 30
0.0
 11
10.3059943911
 21
58.2527543018
 31
0.0
  0
LINE
  5
105
330
FD
100
AcDbEntity
  8
0
  6
Continuous
 62
     7
370
    25
100
AcDbLine
 10
83.0559943911
 20
16.8527543018
 30
0.0
 11
83.0559943911
 21
58.2527543018
 31
0.0
  0
LINE
  5
106
330
FD
100
AcDbEntity
  8
0
  6
Continuous
 62
     7
370
    25
100
AcDbLine
 10
10.3059943911
 20
16.8527543018
 30
0.0
 11
83.0559943911
 21
16.8527543018
 31
0.0
  0
LINE
  5
107
330
FD
100
AcDbEntity
  8
0
  6
Continuous
 62
     7
370
    25
100
AcDbLine
 10
10.3059943911
 20
58.2527543018
 30
0.0
 11
10.3059943911
 21
16.8527543018
 31
0.0
  0
LINE
  5
108
330
FD
100
AcDbEntity
  8
0
  6
Continuous
 62
     7
370
    25
100
AcDbLine
 10
93.1809943911
 20
70.2027543018
 30
0.0
 11
93.1809943911
 21
13.3527543018
 31
0.0
  0
LINE
  5
109
330
FD
100
AcDbEntity
  8
0
  6
Continuous
 62
     7
370
    25
100
AcDbLine
 10
93.1809943911
 20
70.2027543018
 30
0.0
 11
0.1809943911
 21
70.2027543018
 31
0.0
  0
LINE
  5
10A
330
FD
100
AcDbEntity
  8
0
  6
Continuous
 62
     7
370
    25
100
AcDbLine
 10
0.1809943911
 20
13.3527543018
 30
0.0
 11
0.1809943911
 21
70.2027543018
 31
0.0
  0
LINE
  5
10B
330
FD
100
AcDbEntity
  8
0
  6
Continuous
 62
     7
370
    25
100
AcDbLine
 10
93.1809943911
 20
13.3527543018
 30
0.0
 11
0.1809943911
 21
13.3527543018
 31
0.0
  0
ENDBLK
  5
FF
330
FD
100
AcDbEntity
  8
0
100
AcDbBlockEnd
  0
BLOCK
  5
10D
330
10C
100
AcDbEntity
  8
0
100
AcDbBlockBegin
  2
panel6_v1
 70
     0
 10
0.0
 20
0.0
 30
0.0
  3
panel6_v1
  1

  0
CIRCLE
  5
10F
330
10C
100
AcDbEntity
  8
0
  6
Continuous
 62
     7
370
    25
100
AcDbCircle
 10
89.1809943911
 20
60.917566131
 30
0.0
 40
1.499999999999972
  0
CIRCLE
  5
110
330
10C
100
AcDbEntity
  8
0
  6
Continuous
 62
     7
370
    25
100
AcDbCircle
 10
4.1809943911
 20
60.917566131
 30
0.0
 40
1.5
  0
ARC
  5
111
330
10C
100
AcDbEntity
  8
0
  6
Continuous
 62
     7
370
    25
100
AcDbCircle
 10
21.5809943911
 20
62.167566131
 30
0.0
 40
0.9000000000000057
100
AcDbArc
 50
0.0
 51
90.0
  0
ARC
  5
112
330
10C
100
AcDbEntity
  8
0
  6
Continuous
 62
     7
370
    25
100
AcDbCircle
 10
21.5809943911
 20
61.3709820874
 30
0.0
 40
0.8999999999999986
100
AcDbArc
 50
315.2767890522
 51
0.0
  0
ARC
  5
113
330
10C
100
AcDbEntity
  8
0
  6
Continuous
 62
     7
370
    25
100
AcDbCircle
 10
22.0659943911
 20
60.4395955662
 30
0.0
 40
0.099999999987002
100
AcDbArc
 50
135.2767890735
 51
179.999999996
  0
ARC
  5
114
330
10C
100
AcDbEntity
  8
0
  6
Continuous
 62
     7
370
    25
100
AcDbCircle
 10
21.0659943912
 20
59.667566131
 30
0.0
 40
0.8999999999999915
100
AcDbArc
 50
270.0
 51
0.0
  0
ARC
  5
115
330
10C
100
AcDbEntity
  8
0
  6
Continuous
 62
     7
370
    25
100
AcDbCircle
 10
15.7959943912
 20
59.667566131
 30
0.0
 40
0.8999999999999932
100
AcDbArc
 50
180.0
 51
270.0
  0
ARC
  5
116
330
10C
100
AcDbEntity
  8
0
  6
Continuous
 62
     7
370
    25
100
AcDbCircle
 10
14.7959943912
 20
60.4395955662
 30
0.0
 40
0.0999999999999943
100
AcDbArc
 50
0.0
 51
44.7232109478
  0
ARC
  5
117
330
10C
100
AcDbEntity
  8
0
  6
Continuous
 62
     7
370
    25
100
AcDbCircle
 10
15.2809943911
 20
61.3709820874
 30
0.0
 40
0.9000000000241108
100
AcDbArc
 50
180.0
 51
224.723210951
  0
ARC
  5
118
330
10C
100
AcDbEntity
  8
0
  6
Continuous
 62
     7
370
    25
100
AcDbCircle
 10
15.2809943911
 20
62.167566131
 30
0.0
 40
0.9000000000000057
100
AcDbArc
 50
90.0
 51
180.0
  0
CIRCLE
  5
119
330
10C
100
AcDbEntity
  8
0
  6
Continuous
 62
     7
370
    25
100
AcDbCircle
 10
74.6809943911
 20
60.917566131
 30
0.0
 40
2.500000000000028
  0
LINE
  5
11A
330
10C
100
AcDbEntity
  8
0
  6
Continuous
 62
     7
370
    25
100
AcDbLine
 10
22.4809943911
 20
61.3709820874
 30
0.0
 11
22.4809943911
 21
62.167566131
 31
0.0
  0
LINE
  5
11B
330
10C
100
AcDbEntity
  8
0
  6
Continuous
 62
     7
370
    25
100
AcDbLine
 10
21.9949429446
 20
60.5099638257
 30
0.0
 11
22.2204574097
 21
60.7376677516
 31
0.0
  0
LINE
  5
11C
330
10C
100
AcDbEntity
  8
0
  6
Continuous
 62
     7
370
    25
100
AcDbLine
 10
21.9659943912
 20
59.667566131
 30
0.0
 11
21.9659943912
 21
60.4395955662
 31
0.0
  0
LINE
  5
11D
330
10C
100
AcDbEntity
  8
0
  6
Continuous
 62
     7
370
    25
100
AcDbLine
 10
15.7959943912
 20
58.767566131
 30
0.0
 11
21.0659943912
 21
58.767566131
 31
0.0
  0
LINE
  5
11E
330
10C
100
AcDbEntity
  8
0
  6
Continuous
 62
     7
370
    25
100
AcDbLine
 10
14.8959943912
 20
60.4395955662
 30
0.0
 11
14.8959943912
 21
59.667566131
 31
0.0
  0
LINE
  5
11F
330
10C
100
AcDbEntity
  8
0
  6
Continuous
 62
     7
370
    25
100
AcDbLine
 10
14.6415313726
 20
60.7376677516
 30
0.0
 11
14.8670458377
 21
60.5099638257
 31
0.0
  0
LINE
  5
120
330
10C
100
AcDbEntity
  8
0
  6
Continuous
 62
     7
370
    25
100
AcDbLine
 10
14.3809943911
 20
62.167566131
 30
0.0
 11
14.3809943911
 21
61.3709820874
 31
0.0
  0
LINE
  5
121
330
10C
100
AcDbEntity
  8
0
  6
Continuous
 62
     7
370
    25
100
AcDbLine
 10
21.5809943911
 20
63.067566131
 30
0.0
 11
15.2809943911
 21
63.067566131
 31
0.0
  0
LINE
  5
122
330
10C
100
AcDbEntity
  8
0
  6
Continuous
 62
     7
370
    25
100
AcDbLine
 10
93.1809943911
 20
73.567566131
 30
0.0
 11
93.1809943911
 21
13.506609598
 31
0.0
  0
LINE
  5
123
330
10C
100
AcDbEntity
  8
0
  6
Continuous
 62
     7
370
    25
100
AcDbLine
 10
0.1809943911
 20
73.567566131
 30
0.0
 11
93.1809943911
 21
73.567566131
 31
0.0
  0
LINE
  5
124
330
10C
100
AcDbEntity
  8
0
  6
Continuous
 62
     7
370
    25
100
AcDbLine
 10
0.1809943911
 20
73.567566131
 30
0.0
 11
0.1809943911
 21
13.506609598
 31
0.0
  0
LINE
  5
125
330
10C
100
AcDbEntity
  8
0
  6
Continuous
 62
     7
370
    25
100
AcDbLine
 10
0.1809943911
 20
13.506609598
 30
0.0
 11
93.1809943911
 21
13.506609598
 31
0.0
  0
ENDBLK
  5
10E
330
10C
100
AcDbEntity
  8
0
100
AcDbBlockEnd
  0
BLOCK
  5
127
330
126
100
AcDbEntity
  8
0
100
AcDbBlockBegin
  2
panel7_v1
 70
     0
 10
0.0
 20
0.0
 30
0.0
  3
panel7_v1
  1

  0
CIRCLE
  5
129
330
126
100
AcDbEntity
  8
0
  6
Continuous
 62
     7
370
    25
100
AcDbCircle
 10
89.0
 20
62.10926903
 30
0.0
 40
1.500000000000014
  0
CIRCLE
  5
12A
330
126
100
AcDbEntity
  8
0
  6
Continuous
 62
     7
370
    25
100
AcDbCircle
 10
4.0
 20
4.0
 30
0.0
 40
1.500000000000001
  0
CIRCLE
  5
12B
330
126
100
AcDbEntity
  8
0
  6
Continuous
 62
     7
370
    25
100
AcDbCircle
 10
89.0
 20
4.0
 30
0.0
 40
1.5
  0
CIRCLE
  5
12C
330
126
100
AcDbEntity
  8
0
  6
Continuous
 62
     7
370
    25
100
AcDbCircle
 10
4.0
 20
62.10926903
 30
0.0
 40
1.500000000000014
  0
LINE
  5
12D
330
126
100
AcDbEntity
  8
0
  6
Continuous
 62
     7
370
    25
100
AcDbLine
 10
93.0
 20
0.0
 30
0.0
 11
0.0
 21
0.0
 31
0.0
  0
LINE
  5
12E
330
126
100
AcDbEntity
  8
0
  6
Continuous
 62
     7
370
    25
100
AcDbLine
 10
93.0
 20
0.0
 30
0.0
 11
93.0
 21
66.60926903
 31
0.0
  0
LINE
  5
12F
330
126
100
AcDbEntity
  8
0
  6
Continuous
 62
     7
370
    25
100
AcDbLine
 10
93.0
 20
66.60926903
 30
0.0
 11
0.0
 21
66.60926903
 31
0.0
  0
LINE
  5
130
330
126
100
AcDbEntity
  8
0
  6
Continuous
 62
     7
370
    25
100
AcDbLine
 10
0.0
 20
66.60926903
 30
0.0
 11
0.0
 21
0.0
 31
0.0
  0
ENDBLK
  5
128
330
126
100
AcDbEntity
  8
0
100
AcDbBlockEnd
  0
BLOCK
  5
132
330
131
100
AcDbEntity
  8
0
100
AcDbBlockBegin
  2
panel8_v1
 70
     0
 10
0.0
 20
0.0
 30
0.0
  3
panel8_v1
  1

  0
CIRCLE
  5
134
330
131
100
AcDbEntity
  8
0
  6
Continuous
 62
     7
370
    25
100
AcDbCircle
 10
4.0
 20
4.5
 30
0.0
 40
1.500000000000028
  0
CIRCLE
  5
135
330
131
100
AcDbEntity
  8
0
  6
Continuous
 62
     7
370
    25
100
AcDbCircle
 10
89.0
 20
28.2976688991
 30
0.0
 40
1.499999999999972
  0
CIRCLE
  5
136
330
131
100
AcDbEntity
  8
0
  6
Continuous
 62
     7
370
    25
100
AcDbCircle
 10
89.0
 20
4.5
 30
0.0
 40
1.5
  0
CIRCLE
  5
137
330
131
100
AcDbEntity
  8
0
  6
Continuous
 62
     7
370
    25
100
AcDbCircle
 10
4.0
 20
28.2976688991
 30
0.0
 40
1.500000000000028
  0
LINE
  5
138
330
131
100
AcDbEntity
  8
0
  6
Continuous
 62
     7
370
    25
100
AcDbLine
 10
93.0
 20
0.0
 30
0.0
 11
0.0
 21
0.0
 31
0.0
  0
LINE
  5
139
330
131
100
AcDbEntity
  8
0
  6
Continuous
 62
     7
370
    25
100
AcDbLine
 10
93.0
 20
0.0
 30
0.0
 11
93.0
 21
31.6325849111
 31
0.0
  0
LINE
  5
13A
330
131
100
AcDbEntity
  8
0
  6
Continuous
 62
     7
370
    25
100
AcDbLine
 10
93.0
 20
31.6325849111
 30
0.0
 11
0.0
 21
31.6325849111
 31
0.0
  0
LINE
  5
13B
330
131
100
AcDbEntity
  8
0
  6
Continuous
 62
     7
370
    25
100
AcDbLine
 10
0.0
 20
31.6325849111
 30
0.0
 11
0.0
 21
0.0
 31
0.0
  0
ENDBLK
  5
133
330
131
100
AcDbEntity
  8
0
100
AcDbBlockEnd
  0
BLOCK
  5
13D
330
13C
100
AcDbEntity
  8
0
100
AcDbBlockBegin
  2
panel9_v1
 70
     0
 10
0.0
 20
0.0
 30
0.0
  3
panel9_v1
  1

  0
CIRCLE
  5
13F
330
13C
100
AcDbEntity
  8
0
  6
Continuous
 62
     7
370
    25
100
AcDbCircle
 10
89.0
 20
3.3349160121
 30
0.0
 40
1.500000000000028
  0
CIRCLE
  5
140
330
13C
100
AcDbEntity
  8
0
  6
Continuous
 62
     7
370
    25
100
AcDbCircle
 10
89.0
 20
26.6096915444
 30
0.0
 40
1.499999999999957
  0
CIRCLE
  5
141
330
13C
100
AcDbEntity
  8
0
  6
Continuous
 62
     7
370
    25
100
AcDbCircle
 10
4.0
 20
26.6096915444
 30
0.0
 40
1.500000000000007
  0
CIRCLE
  5
142
330
13C
100
AcDbEntity
  8
0
  6
Continuous
 62
     7
370
    25
100
AcDbCircle
 10
4.0
 20
3.3349160121
 30
0.0
 40
1.500000000000001
  0
LINE
  5
143
330
13C
100
AcDbEntity
  8
0
  6
Continuous
 62
     7
370
    25
100
AcDbLine
 10
93.0
 20
0.0
 30
0.0
 11
0.0
 21
0.0
 31
0.0
  0
LINE
  5
144
330
13C
100
AcDbEntity
  8
0
  6
Continuous
 62
     7
370
    25
100
AcDbLine
 10
93.0
 20
0.0
 30
0.0
 11
93.0
 21
31.1096915444
 31
0.0
  0
LINE
  5
145
330
13C
100
AcDbEntity
  8
0
  6
Continuous
 62
     7
370
    25
100
AcDbLine
 10
93.0
 20
31.1096915444
 30
0.0
 11
0.0
 21
31.1096915444
 31
0.0
  0
LINE
  5
146
330
13C
100
AcDbEntity
  8
0
  6
Continuous
 62
     7
370
    25
100
AcDbLine
 10
0.0
 20
31.1096915444
 30
0.0
 11
0.0
 21
0.0
 31
0.0
  0
ENDBLK
  5
13E
330
13C
100
AcDbEntity
  8
0
100
AcDbBlockEnd
  0
BLOCK
  5
148
330
147
100
AcDbEntity
  8
0
100
AcDbBlockBegin
  2
panel10_v1
 70
     0
 10
0.0
 20
0.0
 30
0.0
  3
panel10_v1
  1

  0
CIRCLE
  5
14A
330
147
100
AcDbEntity
  8
0
  6
Continuous
 62
     7
370
    25
100
AcDbCircle
 10
89.0
 20
101.1127998013
 30
0.0
 40
1.5
  0
CIRCLE
  5
14B
330
147
100
AcDbEntity
  8
0
  6
Continuous
 62
     7
370
    25
100
AcDbCircle
 10
89.0
 20
4.5
 30
0.0
 40
1.500000000000014
  0
CIRCLE
  5
14C
330
147
100
AcDbEntity
  8
0
  6
Continuous
 62
     7
370
    25
100
AcDbCircle
 10
4.0
 20
4.5
 30
0.0
 40
1.499999999999986
  0
CIRCLE
  5
14D
330
147
100
AcDbEntity
  8
0
  6
Continuous
 62
     7
370
    25
100
AcDbCircle
 10
4.0
 20
101.1127998013
 30
0.0
 40
1.500000000000007
  0
ARC
  5
14E
330
147
100
AcDbEntity
  8
0
  6
Continuous
 62
     7
370
    25
100
AcDbCircle
 10
16.8
 20
68.4637592135
 30
0.0
 40
1.5
100
AcDbArc
 50
90.0
 51
270.0
  0
ARC
  5
14F
330
147
100
AcDbEntity
  8
0
  6
Continuous
 62
     7
370
    25
100
AcDbCircle
 10
18.3
 20
68.4637592135
 30
0.0
 40
1.5
100
AcDbArc
 50
270.0
 51
90.0
  0
ARC
  5
150
330
147
100
AcDbEntity
  8
0
  6
Continuous
 62
     7
370
    25
100
AcDbCircle
 10
74.7
 20
36.6490405878
 30
0.0
 40
1.5
100
AcDbArc
 50
90.0
 51
270.0
  0
ARC
  5
151
330
147
100
AcDbEntity
  8
0
  6
Continuous
 62
     7
370
    25
100
AcDbCircle
 10
76.2
 20
36.6490405878
 30
0.0
 40
1.5
100
AcDbArc
 50
270.0
 51
90.0
  0
ARC
  5
152
330
147
100
AcDbEntity
  8
0
  6
Continuous
 62
     7
370
    25
100
AcDbCircle
 10
74.7
 20
68.4637592135
 30
0.0
 40
1.5
100
AcDbArc
 50
90.0
 51
270.0
  0
ARC
  5
153
330
147
100
AcDbEntity
  8
0
  6
Continuous
 62
     7
370
    25
100
AcDbCircle
 10
76.2
 20
68.4637592135
 30
0.0
 40
1.5
100
AcDbArc
 50
270.0
 51
90.0
  0
ARC
  5
154
330
147
100
AcDbEntity
  8
0
  6
Continuous
 62
     7
370
    25
100
AcDbCircle
 10
16.8
 20
36.6490405878
 30
0.0
 40
1.5
100
AcDbArc
 50
90.0
 51
270.0
  0
ARC
  5
155
330
147
100
AcDbEntity
  8
0
  6
Continuous
 62
     7
370
    25
100
AcDbCircle
 10
18.3
 20
36.6490405878
 30
0.0
 40
1.5
100
AcDbArc
 50
270.0
 51
90.0
  0
LINE
  5
156
330
147
100
AcDbEntity
  8
0
  6
Continuous
 62
     7
370
    25
100
AcDbLine
 10
16.8
 20
66.9637592135
 30
0.0
 11
18.3
 21
66.9637592135
 31
0.0
  0
LINE
  5
157
330
147
100
AcDbEntity
  8
0
  6
Continuous
 62
     7
370
    25
100
AcDbLine
 10
18.3
 20
69.9637592135
 30
0.0
 11
16.8
 21
69.9637592135
 31
0.0
  0
LINE
  5
158
330
147
100
AcDbEntity
  8
0
  6
Continuous
 62
     7
370
    25
100
AcDbLine
 10
74.7
 20
35.1490405878
 30
0.0
 11
76.2
 21
35.1490405878
 31
0.0
  0
LINE
  5
159
330
147
100
AcDbEntity
  8
0
  6
Continuous
 62
     7
370
    25
100
AcDbLine
 10
76.2
 20
38.1490405878
 30
0.0
 11
74.7
 21
38.1490405878
 31
0.0
  0
LINE
  5
15A
330
147
100
AcDbEntity
  8
0
  6
Continuous
 62
     7
370
    25
100
AcDbLine
 10
74.7
 20
66.9637592135
 30
0.0
 11
76.2
 21
66.9637592135
 31
0.0
  0
LINE
  5
15B
330
147
100
AcDbEntity
  8
0
  6
Continuous
 62
     7
370
    25
100
AcDbLine
 10
76.2
 20
69.9637592135
 30
0.0
 11
74.7
 21
69.9637592135
 31
0.0
  0
LINE
  5
15C
330
147
100
AcDbEntity
  8
0
  6
Continuous
 62
     7
370
    25
100
AcDbLine
 10
16.8
 20
35.1490405878
 30
0.0
 11
18.3
 21
35.1490405878
 31
0.0
  0
LINE
  5
15D
330
147
100
AcDbEntity
  8
0
  6
Continuous
 62
     7
370
    25
100
AcDbLine
 10
18.3
 20
38.1490405878
 30
0.0
 11
16.8
 21
38.1490405878
 31
0.0
  0
LINE
  5
15E
330
147
100
AcDbEntity
  8
0
  6
Continuous
 62
     7
370
    25
100
AcDbLine
 10
24.05
 20
84.9490405878
 30
0.0
 11
24.05
 21
20.1637592135
 31
0.0
  0
LINE
  5
15F
330
147
100
AcDbEntity
  8
0
  6
Continuous
 62
     7
370
    25
100
AcDbLine
 10
68.95
 20
84.9490405878
 30
0.0
 11
24.05
 21
84.9490405878
 31
0.0
  0
LINE
  5
160
330
147
100
AcDbEntity
  8
0
  6
Continuous
 62
     7
370
    25
100
AcDbLine
 10
68.95
 20
20.1637592135
 30
0.0
 11
68.95
 21
84.9490405878
 31
0.0
  0
LINE
  5
161
330
147
100
AcDbEntity
  8
0
  6
Continuous
 62
     7
370
    25
100
AcDbLine
 10
24.05
 20
20.1637592135
 30
0.0
 11
68.95
 21
20.1637592135
 31
0.0
  0
LINE
  5
162
330
147
100
AcDbEntity
  8
0
  6
Continuous
 62
     7
370
    25
100
AcDbLine
 10
93.0
 20
0.0
 30
0.0
 11
0.0
 21
0.0
 31
0.0
  0
LINE
  5
163
330
147
100
AcDbEntity
  8
0
  6
Continuous
 62
     7
370
    25
100
AcDbLine
 10
93.0
 20
0.0
 30
0.0
 11
93.0
 21
105.1127998013
 31
0.0
  0
LINE
  5
164
330
147
100
AcDbEntity
  8
0
  6
Continuous
 62
     7
370
    25
100
AcDbLine
 10
93.0
 20
105.1127998013
 30
0.0
 11
0.0
 21
105.1127998013
 31
0.0
  0
LINE
  5
165
330
147
100
AcDbEntity
  8
0
  6
Continuous
 62
     7
370
    25
100
AcDbLine
 10
0.0
 20
105.1127998013
 30
0.0
 11
0.0
 21
0.0
 31
0.0
  0
ENDBLK
  5
149
330
147
100
AcDbEntity
  8
0
100
AcDbBlockEnd
  0
BLOCK
  5
167
330
166
100
AcDbEntity
  8
0
100
AcDbBlockBegin
  2
panel11_v1
 70
     0
 10
0.0
 20
0.0
 30
0.0
  3
panel11_v1
  1

  0
CIRCLE
  5
169
330
166
100
AcDbEntity
  8
0
  6
Continuous
 62
     7
370
    25
100
AcDbCircle
 10
14.2257648555
 20
7.3773921764
 30
0.0
 40
1.500000000000004
  0
CIRCLE
  5
16A
330
166
100
AcDbEntity
  8
0
  6
Continuous
 62
     7
370
    25
100
AcDbCircle
 10
113.8477969044
 20
50.877214452
 30
0.0
 40
1.5
  0
CIRCLE
  5
16B
330
166
100
AcDbEntity
  8
0
  6
Continuous
 62
     7
370
    25
100
AcDbCircle
 10
137.7653091439
 20
45.1097129572
 30
0.0
 40
1.500000000000028
  0
CIRCLE
  5
16C
330
166
100
AcDbEntity
  8
0
  6
Continuous
 62
     7
370
    25
100
AcDbCircle
 10
130.5386490129
 20
39.5645016058
 30
0.0
 40
1.5
  0
CIRCLE
  5
16D
330
166
100
AcDbEntity
  8
0
  6
Continuous
 62
     7
370
    25
100
AcDbCircle
 10
115.5779116825
 20
21.7349891444
 30
0.0
 40
1.5
  0
CIRCLE
  5
16E
330
166
100
AcDbEntity
  8
0
  6
Continuous
 62
     7
370
    25
100
AcDbCircle
 10
20.5917773458
 20
24.2489091002
 30
0.0
 40
1.500000000000004
  0
CIRCLE
  5
16F
330
166
100
AcDbEntity
  8
0
  6
Continuous
 62
     7
370
    25
100
AcDbCircle
 10
115.0964061594
 20
41.473880343
 30
0.0
 40
1.5
  0
CIRCLE
  5
170
330
166
100
AcDbEntity
  8
0
  6
Continuous
 62
     7
370
    25
100
AcDbCircle
 10
102.0769055853
 20
33.9562145749
 30
0.0
 40
1.5
  0
CIRCLE
  5
171
330
166
100
AcDbEntity
  8
0
  6
Continuous
 62
     7
370
    25
100
AcDbCircle
 10
110.1602166417
 20
18.8060423995
 30
0.0
 40
1.5
  0
CIRCLE
  5
172
330
166
100
AcDbEntity
  8
0
  6
Continuous
 62
     7
370
    25
100
AcDbCircle
 10
141.5991854925
 20
63.817899475
 30
0.0
 40
1.499999999999886
  0
CIRCLE
  5
173
330
166
100
AcDbEntity
  8
0
  6
Continuous
 62
     7
370
    25
100
AcDbCircle
 10
159.3333217804
 20
55.1670424208
 30
0.0
 40
1.5
  0
CIRCLE
  5
174
330
166
100
AcDbEntity
  8
0
  6
Continuous
 62
     7
370
    25
100
AcDbCircle
 10
165.2739725216
 20
59.7254640607
 30
0.0
 40
1.5
  0
CIRCLE
  5
175
330
166
100
AcDbEntity
  8
0
  6
Continuous
 62
     7
370
    25
100
AcDbCircle
 10
172.3116648344
 20
80.7140221556
 30
0.0
 40
1.5
  0
CIRCLE
  5
176
330
166
100
AcDbEntity
  8
0
  6
Continuous
 62
     7
370
    25
100
AcDbCircle
 10
191.595293125
 20
103.6953554492
 30
0.0
 40
1.5
  0
LINE
  5
177
330
166
100
AcDbEntity
  8
0
  6
Continuous
 62
     7
370
    25
100
AcDbLine
 10
163.7839457589
 20
142.0536374945
 30
0.0
 11
165.712308588
 21
144.3517708239
 31
0.0
  0
LINE
  5
178
330
166
100
AcDbEntity
  8
0
  6
Continuous
 62
     7
370
    25
100
AcDbLine
 10
168.6139083273
 20
101.5099335489
 30
0.0
 11
163.7839457589
 21
142.0536374945
 31
0.0
  0
LINE
  5
179
330
166
100
AcDbEntity
  8
0
  6
Continuous
 62
     7
370
    25
100
AcDbLine
 10
150.7521984337
 20
80.2231766133
 30
0.0
 11
168.6139083273
 21
101.5099335489
 31
0.0
  0
LINE
  5
17A
330
166
100
AcDbEntity
  8
0
  6
Continuous
 62
     7
370
    25
100
AcDbLine
 10
95.1186580722
 20
54.2808306925
 30
0.0
 11
150.7521984337
 21
80.2231766133
 31
0.0
  0
LINE
  5
17B
330
166
100
AcDbEntity
  8
0
  6
Continuous
 62
     7
370
    25
100
AcDbLine
 10
16.409018489
 20
44.9041685733
 30
0.0
 11
95.1186580722
 21
54.2808306925
 31
0.0
  0
LINE
  5
17C
330
166
100
AcDbEntity
  8
0
  6
Continuous
 62
     7
370
    25
100
AcDbLine
 10
0.0
 20
25.3486618381
 30
0.0
 11
16.409018489
 21
44.9041685733
 31
0.0
  0
LINE
  5
17D
330
166
100
AcDbEntity
  8
0
  6
Continuous
 62
     7
370
    25
100
AcDbLine
 10
3.0197805312
 20
0.0
 30
0.0
 11
0.0
 21
25.3486618381
 31
0.0
  0
LINE
  5
17E
330
166
100
AcDbEntity
  8
0
  6
Continuous
 62
     7
370
    25
100
AcDbLine
 10
116.5180169734
 20
13.5210200411
 30
0.0
 11
3.0197805312
 21
0.0
 31
0.0
  0
LINE
  5
17F
330
166
100
AcDbEntity
  8
0
  6
Continuous
 62
     7
370
    25
100
AcDbLine
 10
137.2785583635
 20
38.2624698269
 30
0.0
 11
116.5180169734
 21
13.5210200411
 31
0.0
  0
LINE
  5
180
330
166
100
AcDbEntity
  8
0
  6
Continuous
 62
     7
370
    25
100
AcDbLine
 10
166.5501871898
 20
51.9120545153
 30
0.0
 11
137.2785583635
 21
38.2624698269
 31
0.0
  0
LINE
  5
181
330
166
100
AcDbEntity
  8
0
  6
Continuous
 62
     7
370
    25
100
AcDbLine
 10
211.7216705885
 20
105.7453321385
 30
0.0
 11
166.5501871898
 21
51.9120545153
 31
0.0
  0
LINE
  5
182
330
166
100
AcDbEntity
  8
0
  6
Continuous
 62
     7
370
    25
100
AcDbLine
 10
165.712308588
 20
144.3517708239
 30
0.0
 11
211.7216705885
 21
105.7453321385
 31
0.0
  0
ENDBLK
  5
168
330
166
100
AcDbEntity
  8
0
100
AcDbBlockEnd
  0
BLOCK
  5
184
330
183
100
AcDbEntity
  8
0
100
AcDbBlockBegin
  2
panel12_v1
 70
     0
 10
0.0
 20
0.0
 30
0.0
  3
panel12_v1
  1

  0
CIRCLE
  5
186
330
183
100
AcDbEntity
  8
0
  6
Continuous
 62
     7
370
    25
100
AcDbCircle
 10
38.4573593129
 20
58.3426406871
 30
0.0
 40
1.500000000000036
  0
CIRCLE
  5
187
330
183
100
AcDbEntity
  8
0
  6
Continuous
 62
     7
370
    25
100
AcDbCircle
 10
38.4573593129
 20
6.0426406871
 30
0.0
 40
1.500000000000028
  0
CIRCLE
  5
188
330
183
100
AcDbEntity
  8
0
  6
Continuous
 62
     7
370
    25
100
AcDbCircle
 10
6.0426406872
 20
6.0426406871
 30
0.0
 40
1.499999999999999
  0
CIRCLE
  5
189
330
183
100
AcDbEntity
  8
0
  6
Continuous
 62
     7
370
    25
100
AcDbCircle
 10
6.0426406872
 20
58.3426406871
 30
0.0
 40
1.500000000000021
  0
LINE
  5
18A
330
183
100
AcDbEntity
  8
0
  6
Continuous
 62
     7
370
    25
100
AcDbLine
 10
44.5
 20
64.3852813743
 30
0.0
 11
0.0
 21
64.3852813743
 31
0.0
  0
LINE
  5
18B
330
183
100
AcDbEntity
  8
0
  6
Continuous
 62
     7
370
    25
100
AcDbLine
 10
0.0
 20
64.3852813743
 30
0.0
 11
0.0
 21
0.0
 31
0.0
  0
LINE
  5
18C
330
183
100
AcDbEntity
  8
0
  6
Continuous
 62
     7
370
    25
100
AcDbLine
 10
0.0
 20
0.0
 30
0.0
 11
44.5
 21
0.0
 31
0.0
  0
LINE
  5
18D
330
183
100
AcDbEntity
  8
0
  6
Continuous
 62
     7
370
    25
100
AcDbLine
 10
44.5
 20
0.0
 30
0.0
 11
44.5
 21
64.3852813743
 31
0.0
  0
ENDBLK
  5
185
330
183
100
AcDbEntity
  8
0
100
AcDbBlockEnd
  0
ENDSEC
  0
SECTION
  2
ENTITIES
  0
INSERT
  5
18E
330
1F
100
AcDbEntity
  8
0
  6
Continuous
 62
     7
100
AcDbBlockReference
  2
panel3v1
 10
168.741469565
 20
201.9246866791
 30
0.0
 50
90.0
  0
INSERT
  5
18F
330
1F
100
AcDbEntity
  8
0
  6
Continuous
 62
     7
100
AcDbBlockReference
  2
panel4_v1
 10
237.1547888592
 20
201.9246866791
 30
0.0
 50
90.0
  0
INSERT
  5
190
330
1F
100
AcDbEntity
  8
0
  6
Continuous
 62
     7
100
AcDbBlockReference
  2
panel1_v1
 10
28.4369751663
 20
202.1056810702
 30
0.0
 50
90.0
  0
INSERT
  5
191
330
1F
100
AcDbEntity
  8
0
  6
Continuous
 62
     7
100
AcDbBlockReference
  2
panel2_v1
 10
56.3003713995
 20
202.1056810702
 30
0.0
 50
90.0
  0
INSERT
  5
192
330
1F
100
AcDbEntity
  8
0
  6
Continuous
 62
     7
100
AcDbBlockReference
  2
panel6_v1
 10
116.0477118285
 20
5.9246866791
 30
0.0
 50
90.0
  0
INSERT
  5
193
330
1F
100
AcDbEntity
  8
0
  6
Continuous
 62
     7
100
AcDbBlockReference
  2
panel5_v1
 10
177.7438565323
 20
5.9246866791
 30
0.0
 50
90.0
  0
INSERT
  5
194
330
1F
100
AcDbEntity
  8
0
  6
Continuous
 62
     7
100
AcDbBlockReference
  2
panel7_v1
 10
72.9797231831
 20
104.1056810702
 30
0.0
 50
90.0
  0
INSERT
  5
195
330
1F
100
AcDbEntity
  8
0
  6
Continuous
 62
     7
100
AcDbBlockReference
  2
panel10_v1
 10
223.6561264012
 20
104.1056810702
 30
0.0
 50
90.0
  0
INSERT
  5
196
330
1F
100
AcDbEntity
  8
0
  6
Continuous
 62
     7
100
AcDbBlockReference
  2
panel8_v1
 10
109.6123080942
 20
104.1056810702
 30
0.0
 50
90.0
  0
INSERT
  5
197
330
1F
100
AcDbEntity
  8
0
  6
Continuous
 62
     7
100
AcDbBlockReference
  2
panel9_v1
 10
37.4801456975
 20
6.1056810702
 30
0.0
 50
90.0
  0
INSERT
  5
198
330
1F
100
AcDbEntity
  8
0
  6
Continuous
 62
     7
100
AcDbBlockReference
  2
panel11_v1
 10
252.3088825809
 20
228.8497569765
 30
0.0
 50
263.20638373
  0
INSERT
  5
199
330
1F
100
AcDbEntity
  8
0
  6
Continuous
 62
     7
100
AcDbBlockReference
  2
panel12_v1
 10
179.1561264012
 20
34.7203996959
 30
0.0
  0
INSERT
  5
19A
330
1F
100
AcDbEntity
  8
0
  6
Continuous
 62
     7
100
AcDbBlockReference
  2
panel11_v1
 10
375.6872340683
 20
72.3616051639
 30
0.0
 50
83.20638373
  0
MTEXT
  5
19C
330
1F
100
AcDbEntity
  8
0
  6
Continuous
 62
     7
100
AcDbMText
 10
0.0
 20
14.4752615694
 30
0.0
 40
5.19
 41
0.0
 71
     1
 72
     1
  1
SOLIDWORKS Educational Product.
  7
SLDTEXTSTYLE0
 73
     1
 44
1.0
  0
MTEXT
  5
19D
330
1F
100
AcDbEntity
  8
0
  6
Continuous
 62
     7
100
AcDbMText
 10
0.0
 20
6.6902615694
 30
0.0
 40
5.19
 41
0.0
 71
     1
 72
     1
  1
For Instructional Use Only.
  7
SLDTEXTSTYLE0
 73
     1
 44
1.0
  0
ENDSEC
  0
SECTION
  2
OBJECTS
  0
DICTIONARY
  5
C
330
0
100
AcDbDictionary
281
     1
  3
ACAD_GROUP
350
D
  3
ACAD_LAYOUT
350
1A
  3
ACAD_MLINESTYLE
350
17
  3
ACAD_PLOTSETTINGS
350
19
  3
ACAD_PLOTSTYLENAME
350
E
  3
ACAD_SCALELIST
350
47
  3
DWGPROPS
350
19E
  0
DICTIONARY
  5
D
102
{ACAD_REACTORS
330
C
102
}
330
C
100
AcDbDictionary
281
     1
  0
DICTIONARY
  5
1A
102
{ACAD_REACTORS
330
C
102
}
330
C
100
AcDbDictionary
281
     1
  3
Layout1
350
1E
  3
Layout2
350
26
  3
Model
350
22
  0
DICTIONARY
  5
17
102
{ACAD_REACTORS
330
C
102
}
330
C
100
AcDbDictionary
281
     1
  3
Standard
350
18
  0
DICTIONARY
  5
19
102
{ACAD_REACTORS
330
C
102
}
330
C
100
AcDbDictionary
281
     1
  0
ACDBDICTIONARYWDFLT
  5
E
102
{ACAD_REACTORS
330
C
102
}
330
C
100
AcDbDictionary
281
     1
  3
Normal
350
F
100
AcDbDictionaryWithDefault
340
F
  0
DICTIONARY
  5
47
102
{ACAD_REACTORS
330
C
102
}
330
C
100
AcDbDictionary
281
     1
  3
A0
350
48
  3
A1
350
49
  3
A2
350
4A
  3
A3
350
4B
  3
A4
350
4C
  3
A5
350
4D
  3
A6
350
4E
  3
A7
350
4F
  3
A8
350
50
  3
A9
350
51
  3
B0
350
52
  3
B1
350
53
  3
B2
350
54
  3
B3
350
55
  3
B4
350
56
  3
B5
350
57
  3
B6
350
58
  0
XRECORD
  5
19E
102
{ACAD_REACTORS
330
C
102
}
330
C
100
AcDbXrecord
280
     1
  1
DWGPROPS COOKIE
  2

  3

  4

  6

  7

  8
yaboi
  9

300
=
301
=
302
=
303
=
304
=
305
=
306
=
307
=
308
=
309
=
 40
0.0
 41
2460788.844763484
 42
2460788.84476375
  1

 90
        0
  0
LAYOUT
  5
1E
102
{ACAD_REACTORS
330
1A
102
}
330
1A
100
AcDbPlotSettings
  1

  2
none_device
  4

  6

 40
0.0
 41
0.0
 42
0.0
 43
0.0
 44
0.0
 45
0.0
 46
0.0
 47
0.0
 48
0.0
 49
0.0
140
0.0
141
0.0
142
1.0
143
1.0
 70
   688
 72
     1
 73
     0
 74
     5
  7

 75
    16
147
1.0
148
0.0
149
0.0
100
AcDbLayout
  1
Layout1
 70
     1
 71
     1
 10
0.0
 20
0.0
 11
420.0
 21
297.0
 12
0.0
 22
0.0
 32
0.0
 14
1.0000000000E+20
 24
1.0000000000E+20
 34
1.0000000000E+20
 15
-1.0000000000E+20
 25
-1.0000000000E+20
 35
-1.0000000000E+20
146
0.0
 13
0.0
 23
0.0
 33
0.0
 16
1.0
 26
0.0
 36
0.0
 17
0.0
 27
1.0
 37
0.0
 76
     0
330
1B
  0
LAYOUT
  5
26
102
{ACAD_REACTORS
330
1A
102
}
330
1A
100
AcDbPlotSettings
  1

  2
none_device
  4

  6

 40
0.0
 41
0.0
 42
0.0
 43
0.0
 44
0.0
 45
0.0
 46
0.0
 47
0.0
 48
0.0
 49
0.0
140
0.0
141
0.0
142
1.0
143
1.0
 70
   688
 72
     1
 73
     0
 74
     5
  7

 75
    16
147
1.0
148
0.0
149
0.0
100
AcDbLayout
  1
Layout2
 70
     1
 71
     2
 10
0.0
 20
0.0
 11
0.0
 21
0.0
 12
0.0
 22
0.0
 32
0.0
 14
0.0
 24
0.0
 34
0.0
 15
0.0
 25
0.0
 35
0.0
146
0.0
 13
0.0
 23
0.0
 33
0.0
 16
1.0
 26
0.0
 36
0.0
 17
0.0
 27
1.0
 37
0.0
 76
     0
330
23
  0
LAYOUT
  5
22
102
{ACAD_REACTORS
330
1A
102
}
330
1A
100
AcDbPlotSettings
  1

  2
none_device
  4
Letter_(8.50_x_11.00_Inches)
  6

 40
6.35
 41
6.35
 42
6.35000508
 43
6.35000508
 44
215.9
 45
279.4
 46
0.0
 47
0.0
 48
0.0
 49
0.0
140
0.0
141
0.0
142
1.0
143
1.0
 70
  1712
 72
     1
 73
     0
 74
     0
  7

 75
     0
147
1.0
148
0.0
149
0.0
100
AcDbLayout
  1
Model
 70
     1
 71
     0
 10
0.0
 20
0.0
 11
400.0
 21
300.0
 12
0.0
 22
0.0
 32
0.0
 14
0.0
 24
0.0
 34
0.0
 15
400.0
 25
300.0
 35
0.0
146
0.0
 13
0.0
 23
0.0
 33
0.0
 16
1.0
 26
0.0
 36
0.0
 17
0.0
 27
1.0
 37
0.0
 76
     0
330
1F
331
29
  0
MLINESTYLE
  5
18
102
{ACAD_REACTORS
330
17
102
}
330
17
100
AcDbMlineStyle
  2
Standard
 70
     0
  3

 62
   256
 51
90.0
 52
90.0
 71
     2
 49
0.5
 62
   256
  6
BYLAYER
 49
-0.5
 62
   256
  6
BYLAYER
  0
ACDBPLACEHOLDER
  5
F
102
{ACAD_REACTORS
330
E
102
}
330
E
  0
SCALE
  5
48
102
{ACAD_REACTORS
330
47
102
}
330
47
100
AcDbScale
 70
     0
300
1:1
140
1.0
141
1.0
290
     1
  0
SCALE
  5
49
102
{ACAD_REACTORS
330
47
102
}
330
47
100
AcDbScale
 70
     0
300
1:2
140
1.0
141
2.0
290
     0
  0
SCALE
  5
4A
102
{ACAD_REACTORS
330
47
102
}
330
47
100
AcDbScale
 70
     0
300
1:4
140
1.0
141
4.0
290
     0
  0
SCALE
  5
4B
102
{ACAD_REACTORS
330
47
102
}
330
47
100
AcDbScale
 70
     0
300
1:5
140
1.0
141
5.0
290
     0
  0
SCALE
  5
4C
102
{ACAD_REACTORS
330
47
102
}
330
47
100
AcDbScale
 70
     0
300
1:8
140
1.0
141
8.0
290
     0
  0
SCALE
  5
4D
102
{ACAD_REACTORS
330
47
102
}
330
47
100
AcDbScale
 70
     0
300
1:10
140
1.0
141
10.0
290
     0
  0
SCALE
  5
4E
102
{ACAD_REACTORS
330
47
102
}
330
47
100
AcDbScale
 70
     0
300
1:16
140
1.0
141
16.0
290
     0
  0
SCALE
  5
4F
102
{ACAD_REACTORS
330
47
102
}
330
47
100
AcDbScale
 70
     0
300
1:20
140
1.0
141
20.0
290
     0
  0
SCALE
  5
50
102
{ACAD_REACTORS
330
47
102
}
330
47
100
AcDbScale
 70
     0
300
1:30
140
1.0
141
30.0
290
     0
  0
SCALE
  5
51
102
{ACAD_REACTORS
330
47
102
}
330
47
100
AcDbScale
 70
     0
300
1:40
140
1.0
141
40.0
290
     0
  0
SCALE
  5
52
102
{ACAD_REACTORS
330
47
102
}
330
47
100
AcDbScale
 70
     0
300
1:50
140
1.0
141
50.0
290
     0
  0
SCALE
  5
53
102
{ACAD_REACTORS
330
47
102
}
330
47
100
AcDbScale
 70
     0
300
1:100
140
1.0
141
100.0
290
     0
  0
SCALE
  5
54
102
{ACAD_REACTORS
330
47
102
}
330
47
100
AcDbScale
 70
     0
300
2:1
140
2.0
141
1.0
290
     0
  0
SCALE
  5
55
102
{ACAD_REACTORS
330
47
102
}
330
47
100
AcDbScale
 70
     0
300
4:1
140
4.0
141
1.0
290
     0
  0
SCALE
  5
56
102
{ACAD_REACTORS
330
47
102
}
330
47
100
AcDbScale
 70
     0
300
8:1
140
8.0
141
1.0
290
     0
  0
SCALE
  5
57
102
{ACAD_REACTORS
330
47
102
}
330
47
100
AcDbScale
 70
     0
300
10:1
140
10.0
141
1.0
290
     0
  0
SCALE
  5
58
102
{ACAD_REACTORS
330
47
102
}
330
47
100
AcDbScale
 70
     0
300
100:1
140
100.0
141
1.0
290
     0
  0
ENDSEC
  0
EOF
